<?xml version="1.0" encoding="UTF-8"?>
<svg width="127px" height="109px" viewBox="0 0 127 109" version="1.1" xmlns="http://www.w3.org/2000/svg" xmlns:xlink="http://www.w3.org/1999/xlink">
    <!-- Generator: Sketch 49.1 (51147) - http://www.bohemiancoding.com/sketch -->
    <title>add-photo</title>
    <desc>Created with Sketch.</desc>
    <defs></defs>
    <g id="Page-1" stroke="none" stroke-width="1" fill="none" fill-rule="evenodd">
        <g id="8.4-Rekrutmen-selesai" transform="translate(-907.000000, -386.000000)">
            <g id="add-photo" transform="translate(907.000000, 386.000000)">
                <path d="M96.9032727,76.8829091 L79.8414545,69.5018182 C79.44,69.2989091 78.9970909,68.8036364 78.6130909,68.1556364 L90.0087273,68.1469091 C90.2050909,68.1643636 94.9003636,68.592 98.6683636,66.9709091 C100.090909,66.3578182 101.146909,65.1469091 101.574545,63.648 C102.008727,62.1316364 101.736,60.528 100.832727,59.2407273 C97.5774545,54.6130909 89.9825455,42.5018182 89.7447273,30.2290909 C89.736,30.0174545 89.0443636,9.13745455 68.4283636,8.96509091 C65.3956364,8.99127273 62.592,9.51054545 60.0349091,10.4574545 C59.4807273,9.03490909 58.6625455,7.56 57.4341818,6.16145455 C53.856,2.07054545 48.0349091,0 40.1410909,0 C32.2494545,0 26.4370909,2.07054545 22.8501818,6.16145455 C18.7156364,10.8741818 19.0996364,16.5927273 19.2021818,17.5483636 L19.2021818,26.8385455 C18.0850909,28.1083636 17.4545455,29.736 17.4545455,31.4138182 L17.4545455,38.3956364 C17.4545455,40.5250909 18.4167273,42.5018182 20.0705455,43.824 C21.6654545,50.1556364 25.0145455,54.9294545 26.1818182,56.4545455 L26.1818182,62.232 C26.1818182,63.9207273 25.2610909,65.472 23.7774545,66.2814545 L8.208,74.7774545 C3.144,77.5396364 0,82.8327273 0,88.6014545 L0,96 L104.727273,96 L104.727273,89.5483636 C104.727273,84.1527273 101.727273,79.3047273 96.9032727,76.8829091 Z M76.7978182,92.5047273 L3.49527273,92.5047273 L3.49527273,88.6014545 C3.49527273,84.12 5.94109091,79.9941818 9.87709091,77.8472727 L25.4487273,69.3490909 C28.056,67.9265455 29.6770909,65.1992727 29.6770909,62.232 L29.6770909,55.2196364 L29.2669091,54.7330909 C29.2254545,54.6807273 24.9469091,49.5076364 23.3192727,42.4014545 L23.1556364,41.7098182 L22.56,41.3258182 C21.5454545,40.6712727 20.9498182,39.5803636 20.9498182,38.4043636 L20.9498182,31.4138182 C20.9498182,30.4429091 21.3578182,29.5221818 22.1170909,28.8414545 L22.6865455,28.32 L22.6865455,17.4545455 L22.68,17.2254545 C22.6712727,17.1818182 22.0734545,12.3403636 25.4749091,8.46327273 C28.3723636,5.16436364 33.3076364,3.49527273 40.1410909,3.49527273 C46.9592727,3.49527273 51.8858182,5.14690909 54.7832727,8.42836364 C56.2254545,10.056 56.9498182,11.8712727 57.3076364,13.4312727 C57.3316364,13.5512727 57.3665455,13.6712727 57.384,13.7978182 C57.408,13.9178182 57.4341818,14.0465455 57.4603636,14.1643636 C57.4778182,14.3018182 57.5018182,14.4283636 57.5192727,14.5570909 C57.528,14.6509091 57.5454545,14.7447273 57.5541818,14.8298182 C57.5803636,15.0501818 57.6043636,15.2552727 57.6130909,15.4516364 C57.6218182,15.4690909 57.6218182,15.4778182 57.6218182,15.4952727 C57.6305455,15.6829091 57.6392727,15.8618182 57.648,16.0232727 C57.648,16.056 57.648,16.0821818 57.648,16.1170909 C57.648,16.2610909 57.648,16.3985455 57.648,16.5163636 L57.648,16.5687273 C57.6392727,16.9767273 57.6130909,17.2254545 57.6130909,17.232 L57.5956364,28.32 L58.176,28.8501818 C58.9265455,29.5221818 59.3432727,30.4429091 59.3432727,31.4138182 L59.3432727,38.4043636 C59.3432727,39.9207273 58.3461818,41.2581818 56.8625455,41.7185455 L55.9941818,41.9825455 L55.7127273,42.8443636 C54.5454545,46.4749091 52.8829091,49.8327273 50.7709091,52.8152727 C50.2494545,53.5483636 49.7476364,54.2050909 49.3047273,54.6981818 L48.8683636,55.1934545 L48.8683636,62.3956364 C48.8683636,62.8385455 48.9207273,63.2727273 48.9883636,63.6981818 C48.9970909,63.7832727 49.0232727,63.8770909 49.0407273,63.9621818 C49.1083636,64.3134545 49.2021818,64.6625455 49.3134545,64.9941818 C49.3374545,65.0705455 49.3636364,65.1469091 49.3985455,65.2254545 C49.5338182,65.5898182 49.6865455,65.9498182 49.8741818,66.2814545 C49.8916364,66.3229091 49.9178182,66.3578182 49.9352727,66.4014545 C50.1905455,66.8443636 50.4807273,67.2698182 50.8123636,67.6625455 L51.2138182,68.1556364 L51.2814545,68.1556364 C51.8770909,68.7447273 52.5687273,69.2552727 53.352,69.648 L70.0232727,77.9825455 C74.208,80.0705455 76.7978182,84.2727273 76.7978182,88.944 L76.7978182,92.5047273 Z M101.232,92.5047273 L80.2930909,92.5047273 L80.2930909,88.944 C80.2930909,82.944 76.9527273,77.5483636 71.5898182,74.8625455 L59.616,68.8712727 C59.9149091,68.1992727 59.9498182,67.4312727 59.6923636,66.6807273 C59.2669091,65.4545455 58.1498182,64.6625455 56.8472727,64.6625455 L52.9767273,64.6625455 C52.9003636,64.5163636 52.8501818,64.3636364 52.7803636,64.2109091 C52.6952727,64.0145455 52.5927273,63.8181818 52.5338182,63.6043636 C52.4225455,63.2138182 52.3636364,62.8123636 52.3636364,62.3956364 L52.3636364,56.4981818 C52.7650909,56.0029091 53.1818182,55.4487273 53.616,54.8356364 C55.7803636,51.7832727 57.5105455,48.384 58.7738182,44.7098182 C61.2349091,43.5861818 62.8385455,41.1469091 62.8385455,38.4043636 L62.8385455,31.4138182 C62.8385455,29.736 62.208,28.1083636 61.0909091,26.8385455 L61.0909091,17.5483636 C61.1345455,17.1141818 61.2349091,15.6894545 60.9469091,13.8152727 C63.1963636,12.9381818 65.7098182,12.4778182 68.4283636,12.4603636 C85.6101818,12.5956364 86.232,29.5832727 86.2494545,30.2989091 C86.5134545,43.5338182 94.5338182,56.352 97.9767273,61.2436364 C98.2756364,61.6712727 98.3607273,62.1905455 98.2254545,62.6923636 C98.1381818,62.9738182 97.9090909,63.4952727 97.2872727,63.768 C94.3549091,65.0290909 90.3752727,64.6712727 90.1701818,64.6625455 L78.1614545,64.6625455 C77.0378182,64.6625455 76.0145455,65.232 75.4167273,66.1876364 C74.8298182,67.1345455 74.7774545,68.3018182 75.2727273,69.2989091 C75.8181818,70.3985455 76.7803636,71.8712727 78.3665455,72.6654545 L95.3869091,80.0290909 C98.9912727,81.8530909 101.232,85.5010909 101.232,89.5483636 L101.232,92.5047273 Z" id="002-users" fill="#AE1620" opacity="0.366564764"></path>
                <path d="M113,81 C105.280852,81 99,87.2808519 99,95 C99,102.719148 105.280852,109 113,109 C120.719148,109 127,102.719148 127,95 C127,87.2808519 120.719148,81 113,81 Z M118.967412,95.825208 L113.534204,95.825208 L113.534204,101.895125 C113.534204,102.504117 113.072546,103 112.501616,103 C111.930687,103 111.465796,102.504117 111.465796,101.895125 L111.465796,95.825208 L106.035821,95.825208 C105.464891,95.825208 105,95.332773 105,94.7237812 C105,94.1147894 105.464891,93.618906 106.035821,93.618906 L111.465796,93.618906 L111.465796,88.1014268 C111.465796,87.492435 111.930687,87 112.501616,87 C113.072546,87 113.534204,87.492435 113.534204,88.1014268 L113.534204,93.618906 L118.967412,93.618906 C119.538342,93.618906 120,94.1147894 120,94.7237812 C120,95.332773 119.538342,95.825208 118.967412,95.825208 Z" id="plus" fill="#E2ABAE"></path>
            </g>
        </g>
    </g>
</svg>