<?xml version="1.0" encoding="UTF-8"?>
<svg width="98px" height="112px" viewBox="0 0 98 112" version="1.1" xmlns="http://www.w3.org/2000/svg" xmlns:xlink="http://www.w3.org/1999/xlink">
    <!-- Generator: Sketch 49.1 (51147) - http://www.bohemiancoding.com/sketch -->
    <title>add-cv</title>
    <desc>Created with Sketch.</desc>
    <defs>
        <polygon id="path-1" points="0.602 0 77.398 0 77.398 95.88 0.602 95.88"></polygon>
    </defs>
    <g id="Page-1" stroke="none" stroke-width="1" fill="none" fill-rule="evenodd">
        <g id="8.4-Rekrutmen-selesai" transform="translate(-420.000000, -386.000000)">
            <g id="add-cv" transform="translate(420.000000, 386.000000)">
                <g id="001-file" opacity="0.366564764">
                    <path d="M62.4055643,40 L22.5944357,40 C21.7166003,40 21,40.6722846 21,41.5 C21,42.3258427 21.7166003,43 22.5944357,43 L62.4055643,43 C63.2833997,43 64,42.3258427 64,41.5 C64,40.6722846 63.2833997,40 62.4055643,40 Z" id="Fill-1" fill="#AE1620"></path>
                    <path d="M22.5849823,30 L38.4150177,30 C39.2876484,30 40,29.3331246 40,28.4953037 C40,27.6668754 39.2876484,27 38.4150177,27 L22.5849823,27 C21.7123516,27 21,27.6668754 21,28.4953037 C21,29.3331246 21.7123516,30 22.5849823,30 Z" id="Fill-2" fill="#AE1620"></path>
                    <path d="M62.4055643,53 L22.5944357,53 C21.7166003,53 21,53.6741573 21,54.5 C21,55.3277154 21.7166003,56 22.5944357,56 L62.4055643,56 C63.2833997,56 64,55.3277154 64,54.5 C64,53.6741573 63.2833997,53 62.4055643,53 Z" id="Fill-3" fill="#AE1620"></path>
                    <path d="M62.4055643,66 L22.5944357,66 C21.7166003,66 21,66.6668754 21,67.5046963 C21,68.3331246 21.7166003,69 22.5944357,69 L62.4055643,69 C63.2833997,69 64,68.3331246 64,67.5046963 C64,66.6668754 63.2833997,66 62.4055643,66 Z" id="Fill-4" fill="#AE1620"></path>
                    <g id="Group-8">
                        <mask id="mask-2" fill="white">
                            <use xlink:href="#path-1"></use>
                        </mask>
                        <g id="Clip-6"></g>
                        <path d="M63,78.398 L23,78.398 C22.118,78.398 21.398,79.118 21.398,80 C21.398,80.882 22.118,81.602 23,81.602 L63,81.602 C63.882,81.602 64.602,80.882 64.602,80 C64.602,79.118 63.882,78.398 63,78.398 Z" id="Fill-5" fill="#AE1620" mask="url(#mask-2)"></path>
                        <path d="M69.398,23.336 L69.398,0 L0.602,0 L0.602,88 L8.602,88 L8.602,96 L77.398,96 L77.398,31.336 L69.398,23.336 Z M55,13.46 L71.938,30.398 L55,30.398 L55,13.46 Z M3.796,84.796 L3.796,3.204 L66.204,3.204 L66.204,20.14 L54.062,8 L8.602,8 L8.602,84.796 L3.796,84.796 Z M11.796,92.796 L11.796,11.204 L51.796,11.204 L51.796,33.602 L74.204,33.602 L74.204,92.796 L11.796,92.796 Z" id="Fill-7" fill="#AE1620" mask="url(#mask-2)"></path>
                    </g>
                </g>
                <path d="M84,84 C76.2808519,84 70,90.2808519 70,98 C70,105.719148 76.2808519,112 84,112 C91.7191481,112 98,105.719148 98,98 C98,90.2808519 91.7191481,84 84,84 Z M89.9674124,98.825208 L84.5342041,98.825208 L84.5342041,104.895125 C84.5342041,105.504117 84.0725462,106 83.5016164,106 C82.9306867,106 82.4657959,105.504117 82.4657959,104.895125 L82.4657959,98.825208 L77.0358205,98.825208 C76.4648907,98.825208 76,98.332773 76,97.7237812 C76,97.1147894 76.4648907,96.618906 77.0358205,96.618906 L82.4657959,96.618906 L82.4657959,91.1014268 C82.4657959,90.492435 82.9306867,90 83.5016164,90 C84.0725462,90 84.5342041,90.492435 84.5342041,91.1014268 L84.5342041,96.618906 L89.9674124,96.618906 C90.5383422,96.618906 91,97.1147894 91,97.7237812 C91,98.332773 90.5383422,98.825208 89.9674124,98.825208 Z" id="plus" fill="#E2ABAE"></path>
            </g>
        </g>
    </g>
</svg>