<?xml version="1.0" encoding="UTF-8"?>
<svg width="30px" height="30px" viewBox="0 0 30 30" version="1.1" xmlns="http://www.w3.org/2000/svg" xmlns:xlink="http://www.w3.org/1999/xlink">
    <!-- Generator: Sketch 49.1 (51147) - http://www.bohemiancoding.com/sketch -->
    <title>add-exp</title>
    <desc>Created with Sketch.</desc>
    <defs>
        <polygon id="path-1" points="0.0409090909 0.545454545 30 0.545454545 30 29.9993182 0.0409090909 29.9993182"></polygon>
    </defs>
    <g id="Page-1" stroke="none" stroke-width="1" fill="none" fill-rule="evenodd">
        <g id="8.3-Rekrutmen-Experience" transform="translate(-165.000000, -872.000000)">
            <g id="add-exp" transform="translate(165.000000, 872.000000)">
                <g id="Group-3">
                    <mask id="mask-2" fill="white">
                        <use xlink:href="#path-1"></use>
                    </mask>
                    <g id="Clip-2"></g>
                    <path d="M26.7265909,4.90772727 L26.7265909,0.545454545 L0,0.545454545 L0,26.1831818 L3.81954545,26.1831818 L3.81954545,29.9993182 L30,29.9993182 L30,4.90772727 L26.7265909,4.90772727 Z M1.09227273,25.0909091 L1.09227273,1.63772727 L25.6377273,1.63772727 L25.6377273,4.90772727 L3.81954545,4.90772727 L3.81954545,25.0909091 L1.09227273,25.0909091 Z M4.90840909,28.9104545 L28.9077273,28.9104545 L28.9077273,6 L4.90840909,6 L4.90840909,28.9104545 Z" id="Fill-1" fill="#AE1620" mask="url(#mask-2)"></path>
                </g>
                <path d="M22.9104545,16.9090909 L17.4559091,16.9090909 L17.4559091,11.4545455 C17.4559091,11.1538636 17.2104545,10.9084091 16.9097727,10.9084091 C16.6084091,10.9084091 16.3636364,11.1538636 16.3636364,11.4545455 L16.3636364,16.9090909 L10.9090909,16.9090909 C10.6084091,16.9090909 10.3629545,17.1538636 10.3629545,17.4552273 C10.3629545,17.7559091 10.6084091,18.0013636 10.9090909,18.0013636 L16.3636364,18.0013636 L16.3636364,23.4559091 C16.3636364,23.7565909 16.6084091,23.9986364 16.9097727,23.9986364 C17.2104545,23.9986364 17.4559091,23.7565909 17.4559091,23.4559091 L17.4559091,18.0013636 L22.9104545,18.0013636 C23.2111364,18.0013636 23.4531818,17.7559091 23.4531818,17.4552273 C23.4531818,17.1538636 23.2111364,16.9090909 22.9104545,16.9090909 Z" id="Fill-4" fill="#AE1620"></path>
            </g>
        </g>
    </g>
</svg>