<?xml version="1.0" encoding="UTF-8"?>
<svg width="19px" height="20px" viewBox="0 0 19 20" version="1.1" xmlns="http://www.w3.org/2000/svg" xmlns:xlink="http://www.w3.org/1999/xlink">
    <!-- Generator: Sketch 49.1 (51147) - http://www.bohemiancoding.com/sketch -->
    <title>icons8-calendar</title>
    <desc>Created with Sketch.</desc>
    <defs></defs>
    <g id="Page-1" stroke="none" stroke-width="1" fill="none" fill-rule="evenodd">
        <g id="8.1-Rekrutmen-Biodata" transform="translate(-865.000000, -311.000000)" fill="#E0E0E0">
            <g id="Group-4" transform="translate(165.000000, 156.000000)">
                <path d="M704,155.8 C703.5624,155.8 703.2,156.1624 703.2,156.6 L703.2,157.4 L700.8,157.4 C700.5908,157.4 700.378,157.4764 700.228,157.628 C700.0764,157.778 700,157.9908 700,158.2 L700,174.2 C700,174.4092 700.0764,174.622 700.228,174.7736 C700.378,174.9236 700.5908,175 700.8,175 L717.6,175 C717.8092,175 718.022,174.9236 718.1736,174.7736 C718.3236,174.622 718.4,174.4092 718.4,174.2 L718.4,158.2 C718.4,157.9908 718.3236,157.778 718.1736,157.628 C718.022,157.4764 717.8092,157.4 717.6,157.4 L715.2,157.4 L715.2,156.6 C715.2,156.1624 714.8376,155.8 714.4,155.8 L713.6,155.8 C713.1624,155.8 712.8,156.1624 712.8,156.6 L712.8,157.4 L705.6,157.4 L705.6,156.6 C705.6,156.1624 705.2376,155.8 704.8,155.8 L704,155.8 Z M704,159 L704.8,159 L704.8,156.6 L704,156.6 L704,159 Z M713.6,159 L714.4,159 L714.4,156.6 L713.6,156.6 L713.6,159 Z M700.8,158.2 L703.2,158.2 L703.2,159 C703.2,159.4376 703.5624,159.8 704,159.8 L704.8,159.8 C705.2376,159.8 705.6,159.4376 705.6,159 L705.6,158.2 L712.8,158.2 L712.8,159 C712.8,159.4376 713.1624,159.8 713.6,159.8 L714.4,159.8 C714.8376,159.8 715.2,159.4376 715.2,159 L715.2,158.2 L717.6,158.2 L717.6,161 L700.8,161 L700.8,158.2 Z M700.8,174.2 L717.6,174.2 L717.6,161.8 L700.8,161.8 L700.8,174.2 Z M703.2,172.6 L715.2,172.6 L715.2,163.4 L703.2,163.4 L703.2,172.6 Z M704,166.2 L706,166.2 L706,164.2 L704,164.2 L704,166.2 Z M706.8,166.2 L708.8,166.2 L708.8,164.2 L706.8,164.2 L706.8,166.2 Z M709.6,166.2 L711.6,166.2 L711.6,164.2 L709.6,164.2 L709.6,166.2 Z M712.4,166.2 L714.4,166.2 L714.4,164.2 L712.4,164.2 L712.4,166.2 Z M704,169 L706,169 L706,167 L704,167 L704,169 Z M706.8,169 L708.8,169 L708.8,167 L706.8,167 L706.8,169 Z M709.6,169 L711.6,169 L711.6,167 L709.6,167 L709.6,169 Z M712.4,169 L714.4,169 L714.4,167 L712.4,167 L712.4,169 Z M704,171.8 L706,171.8 L706,169.8 L704,169.8 L704,171.8 Z M706.8,171.8 L708.8,171.8 L708.8,169.8 L706.8,169.8 L706.8,171.8 Z M709.6,171.8 L711.6,171.8 L711.6,169.8 L709.6,169.8 L709.6,171.8 Z M712.4,171.8 L714.4,171.8 L714.4,169.8 L712.4,169.8 L712.4,171.8 Z" id="icons8-calendar"></path>
            </g>
        </g>
    </g>
</svg>