<?xml version="1.0" encoding="UTF-8"?>
<svg width="50px" height="54px" viewBox="0 0 50 54" version="1.1" xmlns="http://www.w3.org/2000/svg" xmlns:xlink="http://www.w3.org/1999/xlink">
    <!-- Generator: Sketch 49.1 (51147) - http://www.bohemiancoding.com/sketch -->
    <title>distribusi-nasional-active-ico</title>
    <desc>Created with Sketch.</desc>
    <defs></defs>
    <g id="Page-1" stroke="none" stroke-width="1" fill="none" fill-rule="evenodd">
        <g id="2.2-Distribusi-Nasional" transform="translate(-784.000000, -977.000000)" fill="#AE1620">
            <g id="distribusi-nasional-active-ico" transform="translate(784.000000, 977.000000)">
                <polygon id="Fill-1" points="20.8832468 23.3245455 22.5457143 23.3245455 22.5457143 21.6620779 20.8832468 21.6620779"></polygon>
                <polygon id="Fill-2" points="20.8832468 20.0002597 22.5457143 20.0002597 22.5457143 18.3377922 20.8832468 18.3377922"></polygon>
                <polygon id="Fill-3" points="20.8832468 16.6753247 22.5457143 16.6753247 22.5457143 15.0128571 20.8832468 15.0128571"></polygon>
                <polygon id="Fill-4" points="20.8832468 13.3505195 22.5457143 13.3505195 22.5457143 11.6885714 20.8832468 11.6885714"></polygon>
                <polygon id="Fill-5" points="20.8832468 10.0261039 22.5457143 10.0261039 22.5457143 8.36363636 20.8832468 8.36363636"></polygon>
                <polygon id="Fill-6" points="20.8832468 26.6494805 22.5457143 26.6494805 22.5457143 24.987013 20.8832468 24.987013"></polygon>
                <polygon id="Fill-7" points="20.8832468 29.9738961 22.5457143 29.9738961 22.5457143 28.3119481 20.8832468 28.3119481"></polygon>
                <polygon id="Fill-8" points="20.8832468 33.2987013 22.5457143 33.2987013 22.5457143 31.6362338 20.8832468 31.6362338"></polygon>
                <polygon id="Fill-9" points="20.8832468 36.6236364 22.5457143 36.6236364 22.5457143 34.9611688 20.8832468 34.9611688"></polygon>
                <polygon id="Fill-10" points="20.8832468 39.9479221 22.5457143 39.9479221 22.5457143 38.2854545 20.8832468 38.2854545"></polygon>
                <polygon id="Fill-11" points="20.8832468 43.2728571 22.5457143 43.2728571 22.5457143 41.6103896 20.8832468 41.6103896"></polygon>
                <polygon id="Fill-12" points="20.8832468 46.5972727 22.5457143 46.5972727 22.5457143 44.9353247 20.8832468 44.9353247"></polygon>
                <polygon id="Fill-13" points="24.2075325 23.3245455 25.87 23.3245455 25.87 21.6620779 24.2075325 21.6620779"></polygon>
                <polygon id="Fill-14" points="27.5324675 23.3245455 29.1949351 23.3245455 29.1949351 21.6620779 27.5324675 21.6620779"></polygon>
                <polygon id="Fill-15" points="24.2075325 20.0002597 25.87 20.0002597 25.87 18.3377922 24.2075325 18.3377922"></polygon>
                <polygon id="Fill-16" points="24.2075325 16.6753247 25.87 16.6753247 25.87 15.0128571 24.2075325 15.0128571"></polygon>
                <polygon id="Fill-17" points="24.2075325 13.3505195 25.87 13.3505195 25.87 11.6885714 24.2075325 11.6885714"></polygon>
                <polygon id="Fill-18" points="24.2075325 10.0261039 25.87 10.0261039 25.87 8.36363636 24.2075325 8.36363636"></polygon>
                <polygon id="Fill-19" points="24.2075325 26.6494805 25.87 26.6494805 25.87 24.987013 24.2075325 24.987013"></polygon>
                <polygon id="Fill-20" points="24.2075325 29.9738961 25.87 29.9738961 25.87 28.3119481 24.2075325 28.3119481"></polygon>
                <polygon id="Fill-21" points="24.2075325 33.2987013 25.87 33.2987013 25.87 31.6362338 24.2075325 31.6362338"></polygon>
                <polygon id="Fill-22" points="24.2075325 36.6236364 25.87 36.6236364 25.87 34.9611688 24.2075325 34.9611688"></polygon>
                <polygon id="Fill-23" points="24.2075325 39.9479221 25.87 39.9479221 25.87 38.2854545 24.2075325 38.2854545"></polygon>
                <polygon id="Fill-24" points="24.2075325 43.2728571 25.87 43.2728571 25.87 41.6103896 24.2075325 41.6103896"></polygon>
                <polygon id="Fill-25" points="24.2075325 46.5972727 25.87 46.5972727 25.87 44.9353247 24.2075325 44.9353247"></polygon>
                <polygon id="Fill-26" points="27.5324675 20.0002597 29.1949351 20.0002597 29.1949351 18.3377922 27.5324675 18.3377922"></polygon>
                <polygon id="Fill-27" points="17.5583117 23.3245455 19.2207792 23.3245455 19.2207792 21.6620779 17.5583117 21.6620779"></polygon>
                <polygon id="Fill-28" points="17.5583117 20.0002597 19.2207792 20.0002597 19.2207792 18.3377922 17.5583117 18.3377922"></polygon>
                <polygon id="Fill-29" points="17.5583117 16.6753247 19.2207792 16.6753247 19.2207792 15.0128571 17.5583117 15.0128571"></polygon>
                <polygon id="Fill-30" points="17.5583117 13.3505195 19.2207792 13.3505195 19.2207792 11.6885714 17.5583117 11.6885714"></polygon>
                <polygon id="Fill-31" points="17.5583117 26.6494805 19.2207792 26.6494805 19.2207792 24.987013 17.5583117 24.987013"></polygon>
                <polygon id="Fill-32" points="17.5583117 29.9738961 19.2207792 29.9738961 19.2207792 28.3119481 17.5583117 28.3119481"></polygon>
                <polygon id="Fill-33" points="17.5583117 33.2987013 19.2207792 33.2987013 19.2207792 31.6362338 17.5583117 31.6362338"></polygon>
                <polygon id="Fill-34" points="17.5583117 36.6236364 19.2207792 36.6236364 19.2207792 34.9611688 17.5583117 34.9611688"></polygon>
                <polygon id="Fill-35" points="17.5583117 39.9479221 19.2207792 39.9479221 19.2207792 38.2854545 17.5583117 38.2854545"></polygon>
                <polygon id="Fill-36" points="17.5583117 43.2728571 19.2207792 43.2728571 19.2207792 41.6103896 17.5583117 41.6103896"></polygon>
                <polygon id="Fill-37" points="17.5583117 46.5972727 19.2207792 46.5972727 19.2207792 44.9353247 17.5583117 44.9353247"></polygon>
                <polygon id="Fill-38" points="14.234026 23.3245455 15.895974 23.3245455 15.895974 21.6620779 14.234026 21.6620779"></polygon>
                <polygon id="Fill-39" points="14.234026 26.6494805 15.895974 26.6494805 15.895974 24.987013 14.234026 24.987013"></polygon>
                <polygon id="Fill-40" points="14.234026 29.9738961 15.895974 29.9738961 15.895974 28.3119481 14.234026 28.3119481"></polygon>
                <polygon id="Fill-41" points="14.234026 33.2987013 15.895974 33.2987013 15.895974 31.6362338 14.234026 31.6362338"></polygon>
                <polygon id="Fill-42" points="14.234026 36.6236364 15.895974 36.6236364 15.895974 34.9611688 14.234026 34.9611688"></polygon>
                <polygon id="Fill-43" points="14.234026 39.9479221 15.895974 39.9479221 15.895974 38.2854545 14.234026 38.2854545"></polygon>
                <polygon id="Fill-44" points="14.234026 43.2728571 15.895974 43.2728571 15.895974 41.6103896 14.234026 41.6103896"></polygon>
                <polygon id="Fill-45" points="14.234026 46.5972727 15.895974 46.5972727 15.895974 44.9353247 14.234026 44.9353247"></polygon>
                <polygon id="Fill-46" points="10.9090909 26.6494805 12.5715584 26.6494805 12.5715584 24.987013 10.9090909 24.987013"></polygon>
                <polygon id="Fill-47" points="10.9090909 29.9738961 12.5715584 29.9738961 12.5715584 28.3119481 10.9090909 28.3119481"></polygon>
                <polygon id="Fill-48" points="10.9090909 33.2987013 12.5715584 33.2987013 12.5715584 31.6362338 10.9090909 31.6362338"></polygon>
                <polygon id="Fill-49" points="9.24662338 22.9537662 15.8958442 18.7979221 15.8958442 9.63948052 27.5324675 1.88233766 27.5324675 13.7664935 30.8574026 16.2598701 30.8574026 20.0002597 32.5192208 20.0002597 32.5192208 15.4283117 29.1949351 12.9349351 29.1949351 0.0519480519 27.2807792 0.0519480519 14.234026 8.75025974 14.234026 17.8771429 7.58415584 22.032987 7.58415584 29.9737662 9.24662338 29.9737662"></polygon>
                <polygon id="Fill-50" points="30.8574026 29.9738961 39.1690909 29.9738961 39.1690909 28.3119481 30.8574026 28.3119481"></polygon>
                <polygon id="Fill-51" points="30.8574026 33.2987013 39.1690909 33.2987013 39.1690909 31.6362338 30.8574026 31.6362338"></polygon>
                <polygon id="Fill-52" points="30.8574026 36.6236364 39.1690909 36.6236364 39.1690909 34.9611688 30.8574026 34.9611688"></polygon>
                <polygon id="Fill-53" points="30.8574026 39.9479221 39.1690909 39.9479221 39.1690909 38.2854545 30.8574026 38.2854545"></polygon>
                <polygon id="Fill-54" points="30.8574026 43.2728571 36.6751948 43.2728571 36.6751948 41.6103896 30.8574026 41.6103896"></polygon>
                <polygon id="Fill-55" points="30.8574026 46.5972727 34.1818182 46.5972727 34.1818182 44.9353247 30.8574026 44.9353247"></polygon>
                <path d="M48.1685714,48.2596104 C48.2609091,47.9993506 48.3116883,47.7198701 48.3116883,47.4287013 C48.3116883,46.0264935 47.1723377,44.8835065 45.734026,44.9367532 C45.3494805,43.0415584 43.6698701,41.6103896 41.6624675,41.6103896 C39.612987,41.6103896 37.9048052,43.1023377 37.567013,45.0564935 C36.5680519,45.3822078 35.8441558,46.3222078 35.8441558,47.4287013 C35.8441558,47.7198701 35.8949351,47.9993506 35.9872727,48.2596104 L29.1949351,48.2596104 L29.1949351,26.6494805 L40.8309091,26.6494805 L40.8309091,39.9479221 L42.4933766,39.9479221 L42.4933766,24.987013 L39.1690909,24.987013 L39.1690909,21.6620779 L30.8574026,21.6620779 L30.8574026,24.987013 L27.5324675,24.987013 L27.5324675,48.2596104 L9.24662338,48.2596104 L9.24662338,46.514026 C11.1414286,46.1274026 12.5715584,44.4487013 12.5715584,42.4412987 C12.5715584,39.8464935 9.5225974,32.9120779 9.17506494,32.1298701 C9.04168831,31.8290909 8.7438961,31.6362338 8.41571429,31.6362338 C8.0874026,31.6362338 7.78961039,31.8290909 7.65571429,32.1298701 C7.30818182,32.9120779 4.25987013,39.8464935 4.25987013,42.4412987 C4.25987013,44.4487013 5.68987013,46.1274026 7.58415584,46.514026 L7.58415584,48.2596104 L0.104025974,48.2596104 L0.104025974,53.247013 L1.76649351,53.247013 L1.76649351,49.9220779 L48.3116883,49.9220779 L48.3116883,53.247013 L49.9741558,53.247013 L49.9741558,48.2596104 L48.1685714,48.2596104 Z M32.5192208,24.987013 L37.5066234,24.987013 L37.5066234,23.3245455 L32.5192208,23.3245455 L32.5192208,24.987013 Z M5.92233766,42.4412987 C5.92233766,40.9564935 7.3574026,37.1496104 8.41571429,34.5846753 C9.47441558,37.1487013 10.9090909,40.9554545 10.9090909,42.4412987 C10.9090909,43.5249351 10.214026,44.4487013 9.24662338,44.7922078 L9.24662338,41.6103896 L7.58415584,41.6103896 L7.58415584,44.7922078 C6.61727273,44.4487013 5.92233766,43.5249351 5.92233766,42.4412987 Z M38.3375325,48.2596104 C37.878961,48.2596104 37.5066234,47.8872727 37.5066234,47.4287013 C37.5066234,46.9696104 37.878961,46.5971429 38.3375325,46.5971429 C38.7971429,46.5971429 39.1690909,46.2258442 39.1690909,45.7662338 C39.1690909,44.3914286 40.2876623,43.2728571 41.6624675,43.2728571 C43.0372727,43.2728571 44.1558442,44.3914286 44.1502597,45.7961039 C44.1431169,45.8479221 44.1366234,45.8990909 44.1324675,45.9514286 C44.1116883,46.2609091 44.2649351,46.5576623 44.5292208,46.718961 C44.7935065,46.8797403 45.1272727,46.8807792 45.3916883,46.7214286 C45.9537662,46.3796104 46.6492208,46.8224675 46.6492208,47.4287013 C46.6492208,47.8872727 46.2768831,48.2596104 45.8183117,48.2596104 L38.3375325,48.2596104 Z" id="Fill-56"></path>
            </g>
        </g>
    </g>
</svg>