<?xml version="1.0" encoding="UTF-8"?>
<svg width="120px" height="120px" viewBox="0 0 120 120" version="1.1" xmlns="http://www.w3.org/2000/svg" xmlns:xlink="http://www.w3.org/1999/xlink">
    <!-- Generator: Sketch 49.1 (51147) - http://www.bohemiancoding.com/sketch -->
    <title>email-ico</title>
    <desc>Created with Sketch.</desc>
    <defs>
        <polygon id="path-1" points="0.00731707317 0.0475541796 49.9514634 0.0475541796 49.9514634 39.8782663 0.00731707317 39.8782663"></polygon>
    </defs>
    <g id="Page-1" stroke="none" stroke-width="1" fill="none" fill-rule="evenodd">
        <g id="5.-Divisi-Internasional" transform="translate(-517.000000, -1739.000000)">
            <g id="email-ico" transform="translate(517.000000, 1739.000000)">
                <circle id="Oval-2" fill="#AE1620" cx="60" cy="60" r="60"></circle>
                <g id="003-multimedia" transform="translate(35.000000, 40.000000)">
                    <mask id="mask-2" fill="white">
                        <use xlink:href="#path-1"></use>
                    </mask>
                    <g id="Clip-2"></g>
                    <path d="M46.4309756,0.0475541796 L3.51987805,0.0475541796 C1.57914634,0.0475541796 0,1.65126935 0,3.62204334 L0,36.3039009 C0,38.2746749 1.57914634,39.8782663 3.51987805,39.8782663 L46.4309756,39.8782663 C48.3721951,39.8782663 49.9514634,38.2746749 49.9514634,36.3039009 L49.9514634,3.62204334 C49.9514634,1.65126935 48.3721951,0.0475541796 46.4309756,0.0475541796 Z M3.51987805,1.7498452 L46.4309756,1.7498452 C47.3256098,1.7498452 48.0730488,2.4 48.2397561,3.2596904 L27.3308537,21.3465015 C25.9660976,22.5273065 23.9853659,22.5273065 22.6204878,21.3465015 L1.71158537,3.2596904 C1.87829268,2.4 2.6252439,1.7498452 3.51987805,1.7498452 Z M48.275,34.460805 L33.5646341,21.7358514 C33.2126829,21.4310836 32.6834146,21.4736842 32.3832927,21.8317028 C32.0831707,22.1895975 32.1256098,22.7270588 32.4780488,23.0313313 L48.2397561,36.6662539 C48.0730488,37.5253251 47.3256098,38.1759752 46.4309756,38.1759752 L3.51987805,38.1759752 C2.62573171,38.1759752 1.87829268,37.5258204 1.71158537,36.6662539 L17.4732927,23.0313313 C17.8253659,22.7265635 17.8678049,22.1895975 17.5676829,21.8317028 C17.267561,21.4736842 16.7387805,21.4310836 16.3862195,21.7358514 L1.67634146,34.460805 L1.67634146,5.46501548 L21.5334146,22.6423529 C22.5309756,23.5048916 23.7532927,23.9364706 24.9757317,23.9364706 C26.1980488,23.9364706 27.4204878,23.5048916 28.417439,22.6423529 L48.275,5.46501548 L48.275,34.460805 Z" id="Fill-1" fill="#FFFFFF" mask="url(#mask-2)"></path>
                </g>
            </g>
        </g>
    </g>
</svg>