<?xml version="1.0" encoding="UTF-8"?>
<svg width="20px" height="20px" viewBox="0 0 20 20" version="1.1" xmlns="http://www.w3.org/2000/svg" xmlns:xlink="http://www.w3.org/1999/xlink">
    <!-- Generator: Sketch 49.1 (51147) - http://www.bohemiancoding.com/sketch -->
    <title>fax-ico</title>
    <desc>Created with Sketch.</desc>
    <defs>
        <polygon id="path-1" points="0 0 20 0 20 19.975 0 19.975"></polygon>
    </defs>
    <g id="Symbols" stroke="none" stroke-width="1" fill="none" fill-rule="evenodd">
        <g id="Locations" transform="translate(0.000000, -127.000000)">
            <g id="Group">
                <g id="fax-ico" transform="translate(0.000000, 127.000000)">
                    <path d="M16.6666667,10.6675 C17.58625,10.6675 18.3333333,9.91875 18.3333333,9.00083333 C18.3333333,8.08125 17.58625,7.33416667 16.6666667,7.33416667 C15.7470833,7.33416667 15,8.08125 15,9.00083333 C15,9.91875 15.7470833,10.6675 16.6666667,10.6675 Z M16.6666667,7.99958333 C17.2183333,7.99958333 17.6658333,8.44875 17.6658333,9.00083333 C17.6658333,9.55083333 17.2183333,10 16.6666667,10 C16.115,10 15.6675,9.55083333 15.6675,9.00083333 C15.6675,8.44875 16.115,7.99958333 16.6666667,7.99958333 Z" id="Fill-1" fill="#AE1620"></path>
                    <path d="M5.99916667,2.99958333 L12.0004167,2.99958333 C12.1841667,2.99958333 12.3341667,2.85166667 12.3341667,2.66583333 C12.3341667,2.48208333 12.1841667,2.33416667 12.0004167,2.33416667 L5.99916667,2.33416667 C5.81541667,2.33416667 5.6675,2.48208333 5.6675,2.66583333 C5.6675,2.85166667 5.81541667,2.99958333 5.99916667,2.99958333 Z" id="Fill-2" fill="#AE1620"></path>
                    <path d="M14.0008333,4.00083333 L5.99916667,4.00083333 C5.81541667,4.00083333 5.6675,4.14875 5.6675,4.3325 C5.6675,4.51833333 5.81541667,4.66625 5.99916667,4.66625 L14.0008333,4.66625 C14.1845833,4.66625 14.3325,4.51833333 14.3325,4.3325 C14.3325,4.14875 14.1845833,4.00083333 14.0008333,4.00083333 Z" id="Fill-3" fill="#AE1620"></path>
                    <path d="M14.0008333,14.3325 L5.99916667,14.3325 C5.81541667,14.3325 5.6675,14.4825 5.6675,14.66625 C5.6675,14.8504167 5.81541667,15 5.99916667,15 L14.0008333,15 C14.1845833,15 14.3325,14.8504167 14.3325,14.66625 C14.3325,14.4825 14.1845833,14.3325 14.0008333,14.3325 Z" id="Fill-4" fill="#AE1620"></path>
                    <g>
                        <mask id="mask-2" fill="white">
                            <use xlink:href="#path-1"></use>
                        </mask>
                        <g id="Clip-6"></g>
                        <path d="M14.0008333,15.9991667 L5.99916667,15.9991667 C5.81541667,15.9991667 5.6675,16.1491667 5.6675,16.3329167 C5.6675,16.5170833 5.81541667,16.6666667 5.99916667,16.6666667 L14.0008333,16.6666667 C14.1845833,16.6666667 14.3325,16.5170833 14.3325,16.3329167 C14.3325,16.1491667 14.1845833,15.9991667 14.0008333,15.9991667 Z" id="Fill-5" fill="#AE1620" mask="url(#mask-2)"></path>
                        <path d="M17.0004167,5.6675 L17.0004167,0 L2.99958333,0 L2.99958333,5.6675 L0,5.6675 L0,17.0004167 L2.00041667,17.0004167 L2.00041667,17.9995833 L2.99958333,17.9995833 L2.99958333,20 L17.0004167,20 L17.0004167,17.9995833 L17.9995833,17.9995833 L17.9995833,17.0004167 L20,17.0004167 L20,5.6675 L17.0004167,5.6675 Z M3.66708333,5.6675 L16.3329167,5.6675 L16.3329167,0.6675 L3.66708333,0.6675 L3.66708333,5.6675 Z M2.99958333,6.33291667 L19.3325,6.33291667 L19.3325,11.6666667 L0.6675,11.6666667 L0.6675,6.33291667 L2.99958333,6.33291667 Z M2.66583333,17.3341667 L2.66583333,15 C2.66583333,14.81625 2.51791667,14.66625 2.33416667,14.66625 C2.14833333,14.66625 2.00041667,14.81625 2.00041667,15 L2.00041667,16.3329167 L0.6675,16.3329167 L0.6675,12.3341667 L2.99958333,12.3341667 L2.99958333,17.3341667 L2.66583333,17.3341667 Z M3.66708333,19.3325 L16.3329167,19.3325 L16.3329167,12.3341667 L3.66708333,12.3341667 L3.66708333,19.3325 Z M17.9995833,16.3329167 L17.9995833,15 C17.9995833,14.81625 17.8516667,14.66625 17.6658333,14.66625 C17.4820833,14.66625 17.3341667,14.81625 17.3341667,15 L17.3341667,17.3341667 L17.0004167,17.3341667 L17.0004167,12.3341667 L19.3325,12.3341667 L19.3325,16.3329167 L17.9995833,16.3329167 Z" id="Fill-7" fill="#AE1620" mask="url(#mask-2)"></path>
                    </g>
                    <path d="M2.00041667,7.99958333 L2.99958333,7.99958333 C3.18375,7.99958333 3.33333333,7.85166667 3.33333333,7.66583333 C3.33333333,7.48208333 3.18375,7.33416667 2.99958333,7.33416667 L2.00041667,7.33416667 C1.81625,7.33416667 1.66666667,7.48208333 1.66666667,7.66583333 C1.66666667,7.85166667 1.81625,7.99958333 2.00041667,7.99958333 Z" id="Fill-9" fill="#AE1620"></path>
                    <path d="M2.00041667,9.3325 L2.99958333,9.3325 C3.18375,9.3325 3.33333333,9.18458333 3.33333333,9.00083333 C3.33333333,8.815 3.18375,8.66708333 2.99958333,8.66708333 L2.00041667,8.66708333 C1.81625,8.66708333 1.66666667,8.815 1.66666667,9.00083333 C1.66666667,9.18458333 1.81625,9.3325 2.00041667,9.3325 Z" id="Fill-10" fill="#AE1620"></path>
                    <path d="M2.00041667,10.6675 L2.99958333,10.6675 C3.18375,10.6675 3.33333333,10.5175 3.33333333,10.33375 C3.33333333,10.1495833 3.18375,10 2.99958333,10 L2.00041667,10 C1.81625,10 1.66666667,10.1495833 1.66666667,10.33375 C1.66666667,10.5175 1.81625,10.6675 2.00041667,10.6675 Z" id="Fill-11" fill="#AE1620"></path>
                    <path d="M4.3325,7.99958333 L5.33375,7.99958333 C5.5175,7.99958333 5.6675,7.85166667 5.6675,7.66583333 C5.6675,7.48208333 5.5175,7.33416667 5.33375,7.33416667 L4.3325,7.33416667 C4.14875,7.33416667 4.00083333,7.48208333 4.00083333,7.66583333 C4.00083333,7.85166667 4.14875,7.99958333 4.3325,7.99958333 Z" id="Fill-12" fill="#AE1620"></path>
                    <path d="M4.3325,9.3325 L5.33375,9.3325 C5.5175,9.3325 5.6675,9.18458333 5.6675,9.00083333 C5.6675,8.815 5.5175,8.66708333 5.33375,8.66708333 L4.3325,8.66708333 C4.14875,8.66708333 4.00083333,8.815 4.00083333,9.00083333 C4.00083333,9.18458333 4.14875,9.3325 4.3325,9.3325 Z" id="Fill-13" fill="#AE1620"></path>
                    <path d="M4.3325,10.6675 L5.33375,10.6675 C5.5175,10.6675 5.6675,10.5175 5.6675,10.33375 C5.6675,10.1495833 5.5175,10 5.33375,10 L4.3325,10 C4.14875,10 4.00083333,10.1495833 4.00083333,10.33375 C4.00083333,10.5175 4.14875,10.6675 4.3325,10.6675 Z" id="Fill-14" fill="#AE1620"></path>
                    <path d="M6.66666667,7.99958333 L7.66583333,7.99958333 C7.85166667,7.99958333 7.99958333,7.85166667 7.99958333,7.66583333 C7.99958333,7.48208333 7.85166667,7.33416667 7.66583333,7.33416667 L6.66666667,7.33416667 C6.48291667,7.33416667 6.33291667,7.48208333 6.33291667,7.66583333 C6.33291667,7.85166667 6.48291667,7.99958333 6.66666667,7.99958333 Z" id="Fill-15" fill="#AE1620"></path>
                    <path d="M6.66666667,9.3325 L7.66583333,9.3325 C7.85166667,9.3325 7.99958333,9.18458333 7.99958333,9.00083333 C7.99958333,8.815 7.85166667,8.66708333 7.66583333,8.66708333 L6.66666667,8.66708333 C6.48291667,8.66708333 6.33291667,8.815 6.33291667,9.00083333 C6.33291667,9.18458333 6.48291667,9.3325 6.66666667,9.3325 Z" id="Fill-16" fill="#AE1620"></path>
                    <path d="M6.66666667,10.6675 L7.66583333,10.6675 C7.85166667,10.6675 7.99958333,10.5175 7.99958333,10.33375 C7.99958333,10.1495833 7.85166667,10 7.66583333,10 L6.66666667,10 C6.48291667,10 6.33291667,10.1495833 6.33291667,10.33375 C6.33291667,10.5175 6.48291667,10.6675 6.66666667,10.6675 Z" id="Fill-17" fill="#AE1620"></path>
                </g>
            </g>
        </g>
    </g>
</svg>