<?xml version="1.0" encoding="UTF-8"?>
<svg width="15px" height="20px" viewBox="0 0 15 20" version="1.1" xmlns="http://www.w3.org/2000/svg" xmlns:xlink="http://www.w3.org/1999/xlink">
    <!-- Generator: Sketch 49.1 (51147) - http://www.bohemiancoding.com/sketch -->
    <title>location-small-ico</title>
    <desc>Created with Sketch.</desc>
    <defs></defs>
    <g id="Symbols" stroke="none" stroke-width="1" fill="none" fill-rule="evenodd">
        <g id="Locations" transform="translate(0.000000, -45.000000)" fill="#AE1620">
            <g id="Group">
                <g id="location-small-ico" transform="translate(0.000000, 45.000000)">
                    <path d="M7.29409091,4.45272727 C5.88954545,4.45272727 4.74772727,5.59454545 4.74772727,6.99727273 C4.74772727,8.40136364 5.88954545,9.54318182 7.29409091,9.54318182 C8.69681818,9.54318182 9.83863636,8.40136364 9.83863636,6.99727273 C9.83863636,5.59454545 8.69681818,4.45272727 7.29409091,4.45272727 Z M7.29409091,8.81545455 C6.29090909,8.81545455 5.47590909,8.00045455 5.47590909,6.99727273 C5.47590909,5.99545455 6.29090909,5.17909091 7.29409091,5.17909091 C8.29545455,5.17909091 9.11227273,5.99545455 9.11227273,6.99727273 C9.11227273,8.00045455 8.29545455,8.81545455 7.29409091,8.81545455 Z" id="Fill-1"></path>
                    <path d="M12.1609091,2.13045455 C10.8431818,0.814545455 9.09090909,0.0881818182 7.22818182,0.0881818182 C5.36590909,0.0881818182 3.615,0.814545455 2.29772727,2.13045455 C-0.138636364,4.56818182 -0.442272727,9.15272727 1.64227273,11.9313636 L7.22818182,19.9995455 L12.8072727,11.9422727 C14.9004545,9.15272727 14.5968182,4.56818182 12.1609091,2.13045455 Z M12.2177273,11.5177273 L7.22818182,18.7227273 L2.23181818,11.5068182 C0.342727273,8.98590909 0.612727273,4.845 2.81272727,2.645 C3.99136364,1.46636364 5.56090909,0.816363636 7.22818182,0.816363636 C8.89727273,0.816363636 10.465,1.46636364 11.6459091,2.645 C13.8459091,4.845 14.1177273,8.98590909 12.2177273,11.5177273 Z" id="Fill-3"></path>
                </g>
            </g>
        </g>
    </g>
</svg>