<?xml version="1.0" encoding="UTF-8"?>
<svg width="50px" height="48px" viewBox="0 0 50 48" version="1.1" xmlns="http://www.w3.org/2000/svg" xmlns:xlink="http://www.w3.org/1999/xlink">
    <!-- Generator: Sketch 49.1 (51147) - http://www.bohemiancoding.com/sketch -->
    <title>pabrikan-inactive-ico</title>
    <desc>Created with Sketch.</desc>
    <defs>
        <polygon id="path-1" points="0.00731707317 0.0332386364 49.9514634 0.0332386364 49.9514634 47.2727273 0.00731707317 47.2727273"></polygon>
    </defs>
    <g id="Page-1" stroke="none" stroke-width="1" fill="none" fill-rule="evenodd">
        <g id="2.2-Distribusi-Nasional" transform="translate(-520.000000, -985.000000)">
            <g id="pabrikan-inactive-ico" transform="translate(520.000000, 985.000000)">
                <polygon id="Fill-1" fill="#E0E0E0" points="5.79710145 37.8181818 21.7391304 37.8181818 21.7391304 36.3636364 5.79710145 36.3636364"></polygon>
                <polygon id="Fill-2" fill="#E0E0E0" points="23.9130435 40.7272727 25.3623188 40.7272727 25.3623188 36.3636364 23.9130435 36.3636364"></polygon>
                <polygon id="Fill-3" fill="#E0E0E0" points="28.9855072 40.7272727 30.4347826 40.7272727 30.4347826 36.3636364 28.9855072 36.3636364"></polygon>
                <polygon id="Fill-4" fill="#E0E0E0" points="33.3333333 40.7272727 34.7826087 40.7272727 34.7826087 36.3636364 33.3333333 36.3636364"></polygon>
                <polygon id="Fill-5" fill="#E0E0E0" points="38.4057971 40.7272727 39.8550725 40.7272727 39.8550725 36.3636364 38.4057971 36.3636364"></polygon>
                <g id="Group-9">
                    <mask id="mask-2" fill="white">
                        <use xlink:href="#path-1"></use>
                    </mask>
                    <g id="Clip-7"></g>
                    <polygon id="Fill-6" fill="#E0E0E0" mask="url(#mask-2)" points="42.9435366 40.9860701 44.4717073 40.9860701 44.4717073 36.2590436 42.9435366 36.2590436"></polygon>
                    <path d="M49.1543902,45.7300852 L49.1543902,22.4048106 L38.1617073,27.9532008 L36.6253659,0.0332386364 L28.9404878,0.0332386364 L27.3623171,25.525303 L22.5314634,27.9632955 L21.0023171,7.12427083 L13.3479268,7.12427083 L11.7635366,25.5200095 L0.79695122,31.0549811 L0.79695122,45.7300852 L0,45.7300852 L0,47.2727273 L49.9514634,47.2727273 L49.9514634,45.7300852 L49.1543902,45.7300852 Z M30.3763415,1.57588068 L35.1796341,1.57588068 L35.2681707,3.18487689 L30.2768293,3.18487689 L30.3763415,1.57588068 Z M30.1814634,4.72751894 L35.3530488,4.72751894 L35.4415854,6.33614583 L30.0814634,6.33614583 L30.1814634,4.72751894 Z M29.9862195,7.87878788 L35.5263415,7.87878788 L36.672561,28.7048864 L33.5446341,30.2835985 L33.5446341,22.4048106 L28.9429268,24.7274527 L29.9862195,7.87878788 Z M14.7493902,8.66691288 L19.5831707,8.66691288 L19.7013415,10.2755398 L14.6108537,10.2755398 L14.7493902,8.66691288 Z M14.4779268,11.8181818 L19.8142683,11.8181818 L19.9323171,13.427178 L14.3392683,13.427178 L14.4779268,11.8181818 Z M14.2063415,14.9699432 L20.0457317,14.9699432 L21.0537805,28.7091951 L17.934878,30.2835985 L17.934878,22.4048106 L13.367439,24.7102178 L14.2063415,14.9699432 Z M2.32512195,45.7300852 L5.4797561,45.7300852 L5.4797561,44.1214583 L2.32512195,44.1214583 L2.32512195,45.7300852 Z M7.00792683,45.7300852 L19.5284146,45.7300852 L19.5284146,40.1820644 L7.00792683,40.1820644 L7.00792683,45.7300852 Z M21.0565854,45.7300852 L47.6262195,45.7300852 L47.6262195,44.1214583 L21.0565854,44.1214583 L21.0565854,45.7300852 Z M47.6262195,42.5783239 L21.0565854,42.5783239 L21.0565854,38.6389299 L5.4797561,38.6389299 L5.4797561,42.5783239 L2.32512195,42.5783239 L2.32512195,32.0085606 L16.4067073,24.9010322 L16.4067073,32.7798201 L32.0164634,24.9010322 L32.0164634,32.7798201 L47.6262195,24.9010322 L47.6262195,42.5783239 Z" id="Fill-8" fill="#E0E0E0" mask="url(#mask-2)"></path>
                </g>
            </g>
        </g>
    </g>
</svg>