<?xml version="1.0" encoding="UTF-8"?>
<svg width="70px" height="100px" viewBox="0 0 70 100" version="1.1" xmlns="http://www.w3.org/2000/svg" xmlns:xlink="http://www.w3.org/1999/xlink">
    <!-- Generator: Sketch 49.1 (51147) - http://www.bohemiancoding.com/sketch -->
    <title>peduli-kualitas-ico</title>
    <desc>Created with Sketch.</desc>
    <defs></defs>
    <g id="Page-1" stroke="none" stroke-width="1" fill="none" fill-rule="evenodd">
        <g id="2.-Profile" transform="translate(-235.000000, -1693.000000)" fill="#AE1620">
            <g id="Stacked-Group" transform="translate(135.000000, 1667.000000)">
                <g id="peduli-kualitas-ico" transform="translate(100.000000, 26.000000)">
                    <path d="M59.9766632,58.2795046 L62.5299199,51.9817873 L67.4026123,47.2255949 L67.3367816,40.431763 L69.9997562,34.1787275 L67.3367816,27.9266634 L67.4026123,21.1330743 L62.5308952,16.3778533 L59.9766632,10.0791646 L53.6535005,7.53618261 L48.8790665,2.68309859 L42.0570533,2.74963575 L35.7797283,0.0973773677 L29.5014281,2.74963575 L22.6801463,2.68309859 L17.9057123,7.53618261 L11.5818182,10.0791646 L9.02831766,16.3778533 L4.15586904,21.1330743 L4.22145594,27.9266634 L1.55848137,34.1796989 L4.22145594,40.431763 L4.15586904,47.2265663 L9.02831766,51.9817873 L11.5818182,58.2795046 L14.8323929,59.5864497 L0.586137234,86.3640117 L17.7828283,84.8462846 L25.3440961,99.5624089 L35.1928596,81.0509956 L44.9133751,99.3224866 L53.5905956,85.4771734 L69.7398467,86.2530355 L55.7593521,59.9754735 L59.9766632,58.2795046 Z M13.8580982,56.013356 L11.5435388,50.3057309 L7.13019854,45.9980573 L7.19017764,39.8455561 L4.77760362,34.1796989 L7.19017764,28.5138417 L7.13019854,22.3603691 L11.5435388,18.0539097 L13.8580982,12.3462846 L19.5885406,10.0412822 L23.9126437,5.64545896 L30.0900035,5.70616804 L35.7797283,3.30257407 L41.4684779,5.70616804 L47.6458377,5.64545896 L51.9706722,10.0412822 L57.7013584,12.3462846 L60.015674,18.0539097 L64.4282828,22.3613405 L64.3683037,28.5138417 L66.7816092,34.1796989 L64.3683037,39.8465274 L64.4282828,45.9990287 L60.0146987,50.3057309 L57.7003831,56.013356 L51.969697,58.3183584 L47.6458377,62.7139388 L41.4684779,62.6542011 L35.778753,65.0570665 L30.0900035,62.6542011 L23.9126437,62.7139388 L19.5878091,58.3183584 L13.8580982,56.013356 Z M33.7594566,77.4443905 L24.8240334,72.7282661 L23.4374434,75.3358426 L32.3718913,80.0512385 L25.38969,93.1748422 L19.5114943,81.7321515 L5.75774991,82.9463332 L17.5943574,60.6981544 L17.9057123,60.823458 L22.6801463,65.6762992 L29.5024033,65.6100049 L35.7797283,68.2622632 L39.4760014,66.7008256 L33.7594566,77.4443905 Z M64.6862417,83.0573094 L51.9972483,82.4473045 L45.1237896,93.4147644 L38.0130965,80.0512385 L46.9485197,75.3348713 L45.5619296,72.7282661 L37.3016371,77.0869354 L43.4007315,65.6223895 L48.8780913,65.6755707 L53.1363636,61.3479845 L64.6862417,83.0573094 Z" id="Fill-1"></path>
                    <path d="M35.7797283,8.84409908 C21.753396,8.84409908 10.3417625,20.2100534 10.3417625,34.1796989 C10.3417625,48.1495872 21.753396,59.5143273 35.7797283,59.5143273 C49.8058168,59.5143273 61.2167189,48.1495872 61.2167189,34.1796989 C61.2167189,20.2100534 49.8058168,8.84409908 35.7797283,8.84409908 Z M35.7797283,56.5643516 C23.3869732,56.5643516 13.3046325,46.5225838 13.3046325,34.1796989 C13.3046325,21.836814 23.3869732,11.795289 35.7797283,11.795289 C48.1724835,11.795289 58.2545803,21.836814 58.2545803,34.1796989 C58.2545803,46.5225838 48.1724835,56.5643516 35.7797283,56.5643516 Z" id="Fill-2"></path>
                    <path d="M45.9617903,16.4043225 L44.4893765,18.9645459 C46.8141762,20.2906751 48.8390805,22.160272 50.3458725,24.3715396 L52.7964821,22.7144245 C51.0392894,20.1342885 48.6752351,17.9514327 45.9617903,16.4043225 Z" id="Fill-3"></path>
                    <path d="M18.2143852,35.1027198 L15.2561477,35.2564352 C15.4246256,38.4626032 16.3657611,41.6253035 17.9791014,44.4016513 L20.5428422,42.9237494 C19.1628352,40.5495386 18.3582375,37.8440991 18.2143852,35.1027198 Z" id="Fill-4"></path>
                    <path d="M52.7411355,28.443662 L41.0218042,26.7476931 L35.7797283,16.1699854 L30.5376524,26.7476931 L18.8180773,28.443662 L27.2982933,36.6775134 L25.2965517,48.3033026 L35.7797283,42.8147159 L46.2629049,48.3033026 L44.2609195,36.6775134 L52.7411355,28.443662 Z M35.778753,39.4803303 L29.2307907,42.9096649 L30.4813305,35.6471588 L25.1831766,30.5041282 L32.5052595,29.4443905 L35.778753,22.8365712 L39.0529781,29.4443905 L46.3753048,30.5041282 L41.076907,35.6471588 L42.3274469,42.9096649 L35.778753,39.4803303 Z" id="Fill-5"></path>
                    <polygon id="Fill-6" points="17.8991292 72.4074794 19.2857193 69.8008742 21.3649948 70.8982516 19.9781609 73.5050996"></polygon>
                    <polygon id="Fill-7" points="49.0314525 70.9011656 51.110728 69.8037882 52.4982933 72.4103934 50.4192616 73.5077708"></polygon>
                </g>
            </g>
        </g>
    </g>
</svg>