<?xml version="1.0" encoding="UTF-8"?>
<svg width="100px" height="100px" viewBox="0 0 100 100" version="1.1" xmlns="http://www.w3.org/2000/svg" xmlns:xlink="http://www.w3.org/1999/xlink">
    <!-- Generator: Sketch 49.1 (51147) - http://www.bohemiancoding.com/sketch -->
    <title>peduli-keamanan-ico</title>
    <desc>Created with Sketch.</desc>
    <defs>
        <polygon id="path-1" points="0.0146341463 0.0645476773 99.9033069 0.0645476773 99.9033069 99.7885086 0.0146341463 99.7885086"></polygon>
    </defs>
    <g id="Page-1" stroke="none" stroke-width="1" fill="none" fill-rule="evenodd">
        <g id="2.-Profile" transform="translate(-520.000000, -1693.000000)">
            <g id="Stacked-Group" transform="translate(135.000000, 1667.000000)">
                <g id="peduli-keamanan-ico" transform="translate(385.000000, 26.000000)">
                    <g id="Group-3">
                        <mask id="mask-2" fill="white">
                            <use xlink:href="#path-1"></use>
                        </mask>
                        <g id="Clip-2"></g>
                        <path d="M99.2531707,82.2418093 L89.2358537,75.5220049 L90.7936585,72.5403423 C91.0709756,72.0102689 90.9985366,71.3635697 90.6097561,70.9080685 C90.4907317,70.7677262 87.78,67.6330073 81.6014634,64.4613692 C83.8119512,59.6391198 85.5897561,54.3652812 86.9187805,48.6843521 C90.9165854,31.5867971 89.4741463,16.905379 89.4112195,16.2892421 C89.3397561,15.5977995 88.7956098,15.0515892 88.1058537,14.9809291 C76.4614634,13.7765281 66.9712195,9.88361858 61.0604878,6.83031785 C54.635122,3.51149144 50.9260976,0.435207824 50.8897561,0.405623472 C50.3468293,-0.0491442543 49.5560976,-0.0491442543 49.0129268,0.405623472 C48.8670732,0.527872861 34.1512195,12.6687042 11.7968293,14.9809291 C11.1070732,15.0525672 10.5631707,15.5977995 10.4917073,16.2892421 C10.4629268,16.5662592 9.80463415,23.1753056 10.5468293,32.7002445 C10.6097561,33.507335 11.3119512,34.1119804 12.1190244,34.0479218 C12.924878,33.9848411 13.5260976,33.2792176 13.4631707,32.4721271 C12.9212195,25.503912 13.1573171,20.0513447 13.3097561,17.7630807 C24.8941463,16.3713936 34.3226829,12.4738386 40.2678049,9.39364303 C45.112439,6.88386308 48.4317073,4.54180929 49.9514634,3.39290954 C51.4709756,4.54180929 54.7904878,6.88386308 59.635122,9.39364303 C65.5802439,12.4738386 75.0085366,16.3713936 86.5919512,17.7630807 C86.8436585,21.5650367 87.3226829,34.101467 84.0702439,48.0149144 C82.66,54.0425428 80.7307317,59.5838631 78.3060976,64.5855746 C78.2382927,64.7259169 78.1687805,64.8643032 78.1002439,65.002934 C77.9507317,65.3056235 77.7992683,65.607335 77.6458537,65.906357 C77.5590244,66.0753056 77.472439,66.2435208 77.3846341,66.4114914 C77.2226829,66.7220049 77.0570732,67.0305623 76.8902439,67.3361858 C76.7512195,67.5919315 76.6102439,67.8452323 76.4690244,68.0973105 C76.3414634,68.3237164 76.2139024,68.5498778 76.0841463,68.7735941 C75.9546341,68.9987775 75.8231707,69.2222494 75.6907317,69.4449878 C75.5953659,69.605379 75.4982927,69.7638142 75.4019512,69.9234719 C75.0895122,70.4371638 74.7721951,70.9442543 74.4473171,71.4447433 C74.4236585,71.4811736 74.4007317,71.5183374 74.3768293,71.5547677 C74.2082927,71.8134474 74.0368293,72.0694377 73.8653659,72.3244499 C73.7909756,72.4342298 73.7165854,72.5430318 73.642439,72.6511002 C72.6258537,74.1381418 71.5539024,75.5584352 70.4287805,76.908802 L70.4097561,76.9327628 C70.1914634,77.1943765 69.9714634,77.4523227 69.7495122,77.7080685 C69.575122,77.90978 69.3978049,78.108313 69.2207317,78.3061125 C69.1853659,78.3462103 69.1492683,78.3872861 69.1139024,78.4264059 C68.9139024,78.6488998 68.7119512,78.8694377 68.5080488,79.0882641 C68.497561,79.0997555 68.4870732,79.1112469 68.4765854,79.1217604 C63.3126829,84.6572127 57.107561,88.9303178 49.9514634,91.8699267 C42.944878,88.9894866 35.1009756,84.0603912 28.4490244,75.6366748 C28.4270732,75.60978 28.4060976,75.5821516 28.385122,75.5555012 C28.2507317,75.3853301 28.1182927,75.2124694 27.984878,75.0388753 C25.5582927,71.8564792 23.4041463,68.3303178 21.554878,64.500489 C21.5119512,64.4107579 21.4604878,64.3276284 21.402439,64.2511002 C18.0517073,57.2611247 15.4497561,48.7312958 14.074878,38.3180929 C13.9690244,37.5149144 13.2317073,36.9503667 12.4334146,37.0564792 C11.6319512,37.1623472 11.0690244,37.8997555 11.1746341,38.702934 C12.4360976,48.2564792 14.8285366,56.8924205 18.3012195,64.4613692 C12.1226829,67.6339853 9.41219512,70.7677262 9.29219512,70.9080685 C8.90439024,71.3635697 8.83195122,72.0102689 9.10926829,72.5403423 L10.6658537,75.5220049 L0.648780488,82.2427873 C0.224878049,82.5273839 -0.0209756098,83.0136919 0.000975609756,83.5254279 C0.023902439,84.0364303 0.310487805,84.4997555 0.758292683,84.7462103 L8.94243902,89.2589242 L8.94243902,98.3215159 C8.94243902,98.8486553 9.22439024,99.3339853 9.68,99.595599 C9.90463415,99.7244499 10.1553659,99.7885086 10.4058537,99.7885086 C10.6631707,99.7885086 10.9202439,99.7207824 11.1490244,99.5850856 L27.4046341,89.9645477 C27.415122,89.9589242 27.4239024,89.9513447 27.4341463,89.9454768 C27.4504878,89.9349633 27.4665854,89.9244499 27.4829268,89.9129584 C27.512439,89.8938875 27.54,89.8728606 27.567561,89.8511002 C27.5809756,89.8405868 27.5943902,89.8300733 27.6068293,89.8195599 C27.6409756,89.7899756 27.6743902,89.7601467 27.704878,89.7278729 C27.7104878,89.7229829 27.7153659,89.7183374 27.72,89.7134474 C27.7582927,89.6733496 27.7934146,89.6322738 27.8258537,89.5882641 C27.8268293,89.5872861 27.8287805,89.5865526 27.8297561,89.5845966 C27.832439,89.5806846 27.8343902,89.5767726 27.8363415,89.5740831 C27.8707317,89.5281174 27.9012195,89.4804401 27.9287805,89.4317848 C27.9343902,89.4212714 27.9412195,89.4117359 27.9458537,89.4012225 C27.9743902,89.3486553 28.0002439,89.29511 28.0221951,89.2398533 C28.0258537,89.2300733 28.0287805,89.2205379 28.0317073,89.2110024 C28.0497561,89.1633252 28.064878,89.1156479 28.0773171,89.0660147 C28.0802439,89.0525672 28.0841463,89.0400978 28.0868293,89.0266504 C28.1002439,88.9694377 28.1107317,88.9122249 28.1163415,88.8530562 C28.1173171,88.8452323 28.1173171,88.8376528 28.1182927,88.8300733 C28.1231707,88.7765281 28.1241463,88.7239609 28.1231707,88.6704156 C28.1231707,88.6581907 28.1231707,88.6466993 28.1221951,88.6342298 C28.1192683,88.5740831 28.1136585,88.5139364 28.1041463,88.4537897 C28.1031707,88.4498778 28.1021951,88.4459658 28.1012195,88.4413203 C28.0917073,88.3867971 28.0773171,88.3334963 28.0612195,88.2789731 C28.0573171,88.2645477 28.0526829,88.2513447 28.0487805,88.2369193 C28.0297561,88.1797066 28.0078049,88.1232274 27.9812195,88.0669927 L25.9765854,83.8750611 C27.18,83.2743276 28.5841463,82.6574572 30.1990244,82.0767726 C35.5992683,87.6026895 42.0217073,91.8672372 49.4112195,94.8134474 C49.5856098,94.8833741 49.7685366,94.9176039 49.952439,94.9176039 C50.1353659,94.9176039 50.3192683,94.8833741 50.4926829,94.8134474 C57.8697561,91.8718826 64.3017073,87.6036675 69.7056098,82.0777506 C71.3204878,82.6584352 72.7239024,83.2743276 73.9273171,83.8750611 L71.9226829,88.0679707 C71.8958537,88.1232274 71.875122,88.1806846 71.8558537,88.2378973 C71.8512195,88.2513447 71.8463415,88.2655257 71.8426829,88.2799511 C71.8263415,88.3334963 71.8131707,88.3877751 71.8026829,88.4422983 C71.8026829,88.4459658 71.8007317,88.4498778 71.8007317,88.4547677 C71.7902439,88.5139364 71.7843902,88.5740831 71.7817073,88.6342298 C71.7817073,88.6466993 71.7817073,88.6591687 71.7807317,88.6713936 C71.7797561,88.7239609 71.7817073,88.7775061 71.7863415,88.8300733 C71.7873171,88.8376528 71.7873171,88.8462103 71.7873171,88.8537897 C71.7939024,88.9122249 71.8036585,88.9704156 71.8168293,89.0276284 C71.8197561,89.0400978 71.8236585,89.0535452 71.8273171,89.0669927 C71.8397561,89.1156479 71.854878,89.1643032 71.8721951,89.2110024 C71.8758537,89.2215159 71.8787805,89.2310513 71.8826829,89.2405868 C71.9036585,89.296088 71.9292683,89.3486553 71.9578049,89.4012225 C71.9636585,89.4117359 71.9692683,89.4222494 71.9760976,89.4327628 C72.0036585,89.4814181 72.0341463,89.5281174 72.067561,89.5740831 C72.0702439,89.5767726 72.0712195,89.5816626 72.0741463,89.5845966 L72.0780488,89.5892421 C72.1102439,89.6322738 72.1456098,89.6733496 72.1836585,89.7134474 C72.1885366,89.7190709 72.1941463,89.7229829 72.1990244,89.7288509 C72.2295122,89.7601467 72.2626829,89.790709 72.2970732,89.8195599 C72.3095122,89.8310513 72.3236585,89.8413203 72.3360976,89.8518337 C72.3636585,89.8728606 72.392439,89.8938875 72.4209756,89.9139364 C72.4370732,89.9244499 72.4534146,89.9349633 72.4695122,89.9454768 C72.48,89.9523227 72.4885366,89.9589242 72.4990244,89.9645477 L88.754878,99.5850856 C88.9834146,99.7207824 89.2407317,99.7885086 89.4978049,99.7885086 C89.7485366,99.7885086 89.9990244,99.7244499 90.2239024,99.595599 C90.6792683,99.3349633 90.9612195,98.8486553 90.9612195,98.3224939 L90.9612195,89.2589242 L99.1453659,84.7462103 C99.5931707,84.4997555 99.88,84.0364303 99.9019512,83.5254279 C99.9239024,83.0136919 99.6780488,82.5273839 99.2531707,82.2418093 Z M11.8692683,95.7523227 L11.8692683,88.391687 C11.8682927,87.8567237 11.5778049,87.3640587 11.1109756,87.1061125 L4.27585366,83.3383863 L12.0312195,78.1352078 L17.1770732,87.9885086 C17.2056098,88.0430318 17.2370732,88.094621 17.2712195,88.1442543 C17.2846341,88.1633252 17.3009756,88.1806846 17.315122,88.1997555 C17.3380488,88.2293399 17.36,88.2589242 17.3846341,88.2865526 C17.4095122,88.3132029 17.4360976,88.3381418 17.4629268,88.3640587 C17.4790244,88.3801956 17.4943902,88.3963325 17.512439,88.4117359 C17.544878,88.4403423 17.5790244,88.4660147 17.6143902,88.4909535 C17.6268293,88.500489 17.6390244,88.5100244 17.6514634,88.5185819 C17.6904878,88.5454768 17.7314634,88.5691932 17.7734146,88.592176 C17.7829268,88.598044 17.792439,88.6036675 17.8019512,88.6085575 C17.8468293,88.6312958 17.892439,88.6513447 17.9392683,88.6704156 C17.9478049,88.6733496 17.9553659,88.6762836 17.9629268,88.6792176 C18.0117073,88.6973105 18.0612195,88.7124694 18.1117073,88.7259169 C18.1192683,88.7278729 18.1258537,88.7298289 18.1336585,88.7308068 C18.165122,88.7383863 18.1963415,88.7488998 18.2287805,88.7535452 L22.4743902,89.4765281 L11.8692683,95.7523227 Z M21.794878,86.3860636 C21.8292683,86.3611247 21.8653659,86.3354523 21.9007317,86.3095355 C21.9760976,86.2552567 22.0512195,86.2007335 22.1312195,86.1442543 C22.18,86.1100244 22.2321951,86.0755501 22.2826829,86.0403423 C22.3636585,85.9838631 22.4446341,85.9276284 22.5304878,85.8701711 C22.5819512,85.8359413 22.6363415,85.799511 22.6895122,85.7643032 C22.7792683,85.7051345 22.8678049,85.6457213 22.9612195,85.5845966 C22.9943902,85.5635697 23.0317073,85.5408313 23.064878,85.5188264 C23.1707317,85.4508557 23.277561,85.3841076 23.3870732,85.3144254 C23.3956098,85.3095355 23.405122,85.303912 23.4136585,85.299022 L24.1214634,86.7814181 L21.794878,86.3860636 Z M23.3336585,81.9506112 C23.3297561,81.9525672 23.325122,81.9535452 23.3202439,81.9562347 C23.3078049,81.9630807 23.2965854,81.9696822 23.2841463,81.9772616 C23.2841463,81.9772616 23.2841463,81.9772616 23.2831707,81.9772616 C23.2782927,81.9801956 23.2736585,81.9821516 23.2687805,81.9850856 C23.2068293,82.0193154 23.1458537,82.0537897 23.084878,82.0882641 C22.9717073,82.1520782 22.8609756,82.2161369 22.7514634,82.2792176 C22.6858537,82.3163814 22.6209756,82.3545232 22.5570732,82.3919315 C22.5495122,82.396577 22.5429268,82.400489 22.5353659,82.404401 C22.5256098,82.4110024 22.5160976,82.4166259 22.5056098,82.4224939 C22.3304878,82.5256724 22.1597561,82.6286064 21.9941463,82.7300733 C21.9682927,82.7462103 21.9417073,82.7623472 21.9168293,82.7777506 C21.8158537,82.8398533 21.7178049,82.901956 21.6197561,82.9630807 C21.5997561,82.9762836 21.5787805,82.9897311 21.5587805,83.0031785 C21.5558537,83.0041565 21.5529268,83.005868 21.5509756,83.006846 C20.4258537,83.7242054 19.5397561,84.3889976 18.8834146,84.9322738 L12.195122,72.1249389 C13.2602439,71.1171149 15.6241463,69.1374083 19.5780488,67.1012225 C19.7295122,67.399022 19.8829268,67.694132 20.0380488,67.9885086 C20.1170732,68.1374083 20.1973171,68.2853301 20.2773171,68.4334963 C20.4792683,68.808802 20.6841463,69.1821516 20.8917073,69.5518337 C20.937561,69.6339853 20.9821951,69.7190709 21.0280488,69.8002445 C22.5914634,72.5535452 24.314878,75.1217604 26.1909756,77.5056235 C26.2339024,77.5611247 26.277561,77.6156479 26.3204878,77.6709046 C26.4729268,77.8628362 26.6263415,78.0540342 26.7807317,78.2440098 C26.8607317,78.3413203 26.9407317,78.4388753 27.0197561,78.5352078 C27.1560976,78.700489 27.2914634,78.8657702 27.4285366,79.0281174 C27.6334146,79.2716381 27.8402439,79.5122249 28.0478049,79.7520782 C26.222439,80.4645477 24.6597561,81.2180929 23.3336585,81.9506112 Z M71.8558537,79.7511002 C71.8587805,79.7471883 71.8617073,79.7435208 71.8653659,79.7396088 C71.9912195,79.5953545 72.115122,79.4484108 72.24,79.3022005 C72.3160976,79.2134474 72.392439,79.1254279 72.467561,79.0366748 C72.6580488,78.8102689 72.8468293,78.5821516 73.0343902,78.3528117 C73.0412195,78.3452323 73.0478049,78.3376528 73.0536585,78.3298289 C73.97,77.208802 74.8514634,76.0464548 75.6956098,74.8400978 C75.8078049,74.6806846 75.9156098,74.5154034 76.0260976,74.3540342 C76.1604878,74.1581907 76.294878,73.9623472 76.4273171,73.7647922 C76.574878,73.5420538 76.722439,73.3185819 76.8682927,73.093154 C76.9865854,72.9127139 77.1026829,72.7293399 77.2190244,72.5469438 C77.412439,72.2422983 77.6039024,71.9366748 77.792439,71.6271394 C77.9212195,71.4171149 78.0478049,71.2070905 78.1736585,70.9958435 C78.3221951,70.7476773 78.4690244,70.4982885 78.6136585,70.2481663 C78.7765854,69.9662592 78.9378049,69.6826406 79.0978049,69.397066 C79.1853659,69.2405868 79.2731707,69.0838631 79.3597561,68.9254279 C79.5692683,68.5442543 79.7741463,68.1603912 79.9770732,67.7726161 C80.0458537,67.6418093 80.1143902,67.5090465 80.1819512,67.3772616 C80.2295122,67.2855746 80.2782927,67.1938875 80.324878,67.1012225 C84.2512195,69.1268949 86.6319512,71.1171149 87.7068293,72.1286064 L81.0195122,84.9322738 C80.3619512,84.3889976 79.4768293,83.7242054 78.3517073,83.006846 C78.3487805,83.005868 78.3470732,83.0041565 78.3441463,83.0031785 C78.3241463,82.9897311 78.3031707,82.9762836 78.2831707,82.9630807 C78.1858537,82.901956 78.0878049,82.8398533 77.9868293,82.7777506 C77.9553659,82.7586797 77.9219512,82.7386308 77.8897561,82.7185819 C77.7295122,82.6200489 77.5658537,82.5217604 77.3970732,82.4224939 C77.3865854,82.4166259 77.3770732,82.4100244 77.367561,82.404401 C77.36,82.400489 77.3531707,82.396577 77.3456098,82.3919315 C77.2817073,82.3545232 77.2170732,82.3163814 77.1512195,82.2792176 C77.0417073,82.2161369 76.9312195,82.1520782 76.8178049,82.0882641 C76.7568293,82.0537897 76.6958537,82.0193154 76.6339024,81.9850856 C76.6292683,81.9821516 76.6243902,81.9801956 76.6197561,81.9772616 C76.6073171,81.9696822 76.594878,81.9630807 76.582439,81.9562347 C76.5787805,81.9535452 76.5739024,81.9525672 76.5702439,81.9496333 C75.2439024,81.2180929 73.6814634,80.4645477 71.8558537,79.7511002 Z M76.2014634,85.9036675 L76.49,85.299022 C76.4987805,85.30489 76.5082927,85.3105134 76.5168293,85.3154034 C76.6263415,85.3841076 76.7321951,85.4508557 76.8368293,85.5188264 C76.8712195,85.5408313 76.9082927,85.5635697 76.9426829,85.5855746 C77.0370732,85.6466993 77.1256098,85.705868 77.215122,85.7662592 C77.267561,85.800489 77.3226829,85.8359413 77.3731707,85.8701711 C77.4590244,85.9286064 77.54,85.9848411 77.6219512,86.0413203 C77.672439,86.0755501 77.7239024,86.1110024 77.772439,86.1452323 C77.8507317,86.2007335 77.924878,86.2533007 77.9992683,86.3075795 C78.0353659,86.3334963 78.0736585,86.3601467 78.1087805,86.3870416 L75.7821951,86.7823961 L76.2014634,85.9036675 Z M88.7919512,87.1061125 C88.325122,87.3640587 88.0343902,87.8567237 88.0343902,88.391687 L88.0343902,95.7523227 L77.4295122,89.4765281 L81.674878,88.7535452 C81.6902439,88.7515892 81.7043902,88.7459658 81.7197561,88.7430318 C81.7558537,88.7354523 81.7912195,88.7268949 81.8273171,88.7173594 C81.8521951,88.70978 81.8778049,88.701956 81.9026829,88.6933985 C81.9368293,88.6819071 81.9702439,88.6687042 82.0026829,88.6542787 C82.0273171,88.6437653 82.0512195,88.6332518 82.075122,88.6217604 C82.107561,88.6056235 82.1390244,88.5882641 82.1695122,88.5701711 C82.1921951,88.5569682 82.2141463,88.5444988 82.2360976,88.5300733 C82.2665854,88.5090465 82.2960976,88.4870416 82.3246341,88.4643032 C82.3446341,88.4488998 82.3646341,88.4354523 82.3829268,88.4193154 C82.4134146,88.392665 82.4409756,88.3640587 82.4695122,88.3352078 C82.484878,88.3200489 82.5009756,88.3066015 82.515122,88.2904645 C82.547561,88.2540342 82.5780488,88.2139364 82.607561,88.1738386 C82.6153659,88.1643032 82.6239024,88.1547677 82.6304878,88.1442543 C82.6658537,88.094621 82.6973171,88.0420538 82.7258537,87.9875306 L87.8714634,78.1352078 L95.6268293,83.3374083 L88.7919512,87.1061125 Z" id="Fill-1" fill="#AE1620" mask="url(#mask-2)"></path>
                    </g>
                    <path d="M80.3582927,23.6853301 C80.2868293,22.9948655 79.7417073,22.4486553 79.0529268,22.3770171 C62.175122,20.6320293 50.9995122,11.4452323 50.8897561,11.3535452 C50.3478049,10.8987775 49.5580488,10.8987775 49.014878,11.3525672 C48.9034146,11.4452323 37.7287805,20.6320293 20.8507317,22.3770171 C20.1609756,22.4486553 19.6160976,22.9948655 19.5456098,23.6853301 C19.5178049,23.9577017 18.8729268,30.4464548 19.8780488,39.3046455 C20.8097561,47.5117359 23.405122,59.3469438 30.4792683,69.1210269 C30.765122,69.5166259 31.2119512,69.7266504 31.6643902,69.7266504 C31.9626829,69.7266504 32.2626829,69.6359413 32.5229268,69.4466993 C33.1763415,68.9711491 33.3221951,68.0542787 32.8478049,67.399022 C26.1614634,58.1596577 23.69,46.8804401 22.7934146,39.0440098 C22.0587805,32.6190709 22.2331707,27.39022 22.3685366,25.1562347 C36.8531707,23.3501222 46.9207317,16.6017115 49.9514634,14.3371638 C52.9821951,16.6017115 63.0487805,23.3511002 77.5353659,25.1562347 C77.6353659,26.7885086 77.7563415,30.0222494 77.524878,34.1606357 C77.4790244,34.9696822 78.0963415,35.6621027 78.902439,35.706846 C79.7121951,35.7508557 80.4002439,35.1339853 80.4458537,34.3259169 C80.7965854,28.0682152 80.3763415,23.8621027 80.3582927,23.6853301 Z" id="Fill-4" fill="#AE1620"></path>
                    <path d="M78.6290244,38.7308068 C77.8287805,38.6293399 77.0960976,39.1987775 76.9941463,40.001956 C73.737561,65.795599 60.6146341,76.4924205 49.9514634,80.9200489 C44.7980488,78.7826406 40.2792683,75.7149144 36.5129268,71.7963325 C35.9526829,71.2127139 35.0265854,71.195599 34.4446341,71.7572127 C33.862439,72.3195599 33.8453659,73.2479218 34.4063415,73.8305623 C38.5946341,78.1894866 43.642439,81.5647922 49.4112195,83.8655257 C49.5846341,83.9342298 49.767561,83.9687042 49.9514634,83.9687042 C50.1353659,83.9687042 50.3182927,83.9342298 50.4926829,83.8655257 C59.9239024,80.104401 67.3056098,73.5555012 72.432439,64.4022005 C76.2280488,57.6249389 78.7395122,49.5393643 79.8970732,40.3706601 C79.9980488,39.5662592 79.4302439,38.8327628 78.6290244,38.7308068 Z" id="Fill-5" fill="#AE1620"></path>
                    <path d="M66.31,35.1711491 C64.3121951,33.1684597 61.0614634,33.1684597 59.0634146,35.1711491 L46.0326829,48.2337408 L41.3290244,43.5185819 C39.3312195,41.5156479 36.0814634,41.5156479 34.082439,43.5185819 C32.0856098,45.5212714 32.0856098,48.7799511 34.082439,50.7826406 L42.4104878,59.1300733 C43.377561,60.099511 44.6646341,60.6342298 46.0326829,60.6342298 C47.4019512,60.6342298 48.6890244,60.099511 49.6560976,59.1290954 L66.31,42.4354523 C68.3078049,40.4325183 68.3078049,37.1738386 66.31,35.1711491 Z M64.2417073,40.3608802 L47.587561,57.0557457 C47.1721951,57.4721271 46.6207317,57.7012225 46.0336585,57.7012225 C45.4458537,57.7012225 44.8941463,57.4721271 44.4787805,57.0557457 L36.1529268,48.708313 C35.2953659,47.8486553 35.2953659,46.4515892 36.1519512,45.5919315 C36.5804878,45.1630807 37.1436585,44.9481663 37.7068293,44.9481663 C38.2687805,44.9481663 38.8319512,45.1630807 39.2607317,45.5919315 L44.9990244,51.3442543 C45.2734146,51.6193154 45.645122,51.7740831 46.0326829,51.7740831 C46.4214634,51.7740831 46.7931707,51.6193154 47.067561,51.3442543 L61.1329268,37.2454768 C61.9902439,36.3860636 63.3841463,36.3860636 64.2417073,37.2444988 C65.0980488,38.1041565 65.0980488,39.502445 64.2417073,40.3608802 Z" id="Fill-6" fill="#AE1620"></path>
                </g>
            </g>
        </g>
    </g>
</svg>