<?xml version="1.0" encoding="UTF-8"?>
<svg width="98px" height="97px" viewBox="0 0 98 97" version="1.1" xmlns="http://www.w3.org/2000/svg" xmlns:xlink="http://www.w3.org/1999/xlink">
    <!-- Generator: Sketch 49.1 (51147) - http://www.bohemiancoding.com/sketch -->
    <title>peduli-kesehatan-ico</title>
    <desc>Created with Sketch.</desc>
    <defs></defs>
    <g id="Page-1" stroke="none" stroke-width="1" fill="none" fill-rule="evenodd">
        <g id="2.-Profile" transform="translate(-821.000000, -1694.000000)" fill="#AE1620">
            <g id="Stacked-Group" transform="translate(135.000000, 1667.000000)">
                <g id="peduli-kesehatan-ico" transform="translate(685.000000, 26.000000)">
                    <path d="M85.1478261,65.8875 L50.6543478,71.6416667 L40.8630435,62.25 C40.5326087,61.9395833 40.0891304,61.7604167 39.6304348,61.7604167 L22.2391304,61.7604167 C22.2391304,60.8416667 21.4586957,60.09375 20.5,60.09375 L1.3673913,60.09375 L1.3673913,63.4291667 L11.8043478,63.4291667 L11.8043478,86.7604167 L1.3673913,86.7604167 L1.3673913,90.0979167 L20.5,90.0979167 C21.4586957,90.0979167 22.2391304,89.35 22.2391304,88.4291667 L27.0456522,88.4291667 L45.6434783,97.3416667 C46.4413043,97.7229167 47.3173913,97.91875 48.1826087,97.91875 C49.176087,97.91875 50.1608696,97.6666667 51.0434783,97.1708333 L88.9869565,75.9625 C90.726087,74.99375 91.8043478,73.1875 91.8043478,71.2583333 C91.8043478,69.6479167 91.0673913,68.125 89.776087,67.0916667 C88.4934783,66.05 86.8043478,65.61875 85.1478261,65.8875 Z M15.2847826,86.7604167 L18.7586957,86.7604167 L18.7586957,63.4291667 L15.2847826,63.4291667 L15.2847826,86.7604167 Z M87.2369565,73.08125 L49.2956522,94.2979167 C48.65,94.6541667 47.8695652,94.6791667 47.1978261,94.3541667 L28.2347826,85.2729167 C27.9978261,85.1583333 27.726087,85.09375 27.4543478,85.09375 L22.2391304,85.09375 L22.2391304,65.0979167 L38.9086957,65.0979167 L52.6152174,78.225 C53.2021739,78.79375 53.5413043,79.575 53.5413043,80.38125 C53.5413043,82.0666667 52.1152174,83.425 50.3652174,83.425 C49.523913,83.425 48.7086957,83.1083333 48.1152174,82.5375 L39.1217391,73.91875 L36.6586957,76.2708333 L45.6608696,84.8895833 C46.9173913,86.1020833 48.5826087,86.7604167 50.3652174,86.7604167 C54.0326087,86.7604167 57.0217391,83.8958333 57.0217391,80.38125 C57.0217391,78.68125 56.326087,77.0770833 55.0695652,75.8729167 L53.6695652,74.5208333 L85.7413043,69.175 C86.3869565,69.0604167 87.0413043,69.23125 87.5434783,69.6395833 C88.0434783,70.0375 88.323913,70.63125 88.323913,71.2583333 C88.323913,72.00625 87.9086957,72.70625 87.2369565,73.08125 Z" id="Fill-1"></path>
                    <path d="M98.7608696,13.4291667 L98.7608696,10.09375 L87.8391304,10.09375 C87.526087,9.78333333 87.0847826,10.09375 86.5913043,10.09375 L79.6282609,10.09375 C78.6695652,10.09375 77.8956522,10.09375 77.8956522,11.7604167 L73.0891304,11.7604167 L54.4913043,2.59791667 C52.7673913,1.76875 50.7478261,1.70208333 49.0826087,2.63125 L11.15,23.78125 C9.40869565,24.75 8.33043478,26.5229167 8.33043478,28.4520833 C8.33043478,30.0645833 9.06956522,31.5604167 10.3521739,32.6020833 C11.3869565,33.4333333 12.6782609,33.8729167 14.0021739,33.8729167 C14.3347826,33.8729167 14.6565217,33.8395833 14.9891304,33.7916667 L49.473913,28.0375 L59.273913,37.68125 C59.5956522,37.9979167 60.0369565,38.4291667 60.5043478,38.4291667 L77.8956522,38.4291667 C77.8956522,38.4291667 78.6695652,40.0979167 79.6282609,40.0979167 L98.7608696,40.0979167 L98.7608696,36.7604167 L88.323913,36.7604167 L88.323913,13.4291667 L98.7608696,13.4291667 Z M61.2173913,35.09375 L47.5195652,21.70625 C46.9173913,21.1291667 46.5869565,20.2333333 46.5869565,19.4270833 C46.5869565,17.74375 48.0130435,16.3104167 49.7717391,16.3104167 C50.6108696,16.3104167 51.4173913,16.5958333 52.0130435,17.1729167 L61.0130435,25.775 L63.4673913,23.40625 L54.476087,14.7895833 C53.2173913,13.5770833 51.5456522,12.9166667 49.7717391,12.9166667 C46.0934783,12.9166667 43.1130435,15.7729167 43.1130435,19.2979167 C43.1130435,20.9979167 43.8,22.6020833 45.0586957,23.80625 L46.4673913,25.15625 L14.3934783,30.5041667 C13.7391304,30.6083333 13.0934783,30.4375 12.5934783,30.0395833 C12.0913043,29.6333333 11.8043478,29.0458333 11.8043478,28.4208333 C11.8043478,27.6708333 12.2282609,26.9708333 12.9,26.5895833 L50.8413043,5.38125 C51.4782609,5.02291667 52.2673913,4.99791667 52.9391304,5.31666667 L71.8913043,14.6583333 C72.1391304,14.78125 72.4021739,15.0979167 72.673913,15.0979167 L77.8956522,15.0979167 L77.8956522,35.09375 L61.2173913,35.09375 Z M81.3695652,36.7604167 L84.85,36.7604167 L84.85,13.4291667 L81.3695652,13.4291667 L81.3695652,36.7604167 Z" id="Fill-2"></path>
                    <path d="M50.0673913,41.8395833 C47.2326087,39.4625 42.8065217,39.5291667 40.0565217,42.0354167 C38.6543478,43.3041667 37.8913043,45.0041667 37.8913043,46.8208333 C37.8913043,48.6270833 38.6543478,50.3270833 40.0565217,51.5979167 L48.8630435,59.6375 C49.2021739,59.9375 49.6347826,60.09375 50.0673913,60.09375 C50.5,60.09375 50.926087,59.9375 51.2652174,59.6375 L60.0804348,51.5979167 C61.4717391,50.3270833 62.2369565,48.6270833 62.2369565,46.8208333 C62.2369565,45.0041667 61.4717391,43.3041667 60.0804348,42.0354167 C57.3282609,39.5291667 52.8956522,39.4625 50.0673913,41.8395833 Z M57.676087,49.1791667 L50.0673913,56.1291667 L42.45,49.1791667 C41.7543478,48.5458333 41.3717391,47.70625 41.3717391,46.8125 C41.3717391,45.925 41.7543478,45.0875 42.45,44.4520833 C43.1978261,43.76875 44.1826087,43.4270833 45.1673913,43.4270833 C46.1521739,43.4270833 47.1391304,43.76875 47.8847826,44.4520833 L48.8630435,45.3395833 C49.5413043,45.95625 50.5869565,45.95625 51.2652174,45.3395833 L52.2413043,44.4520833 C53.7369565,43.0854167 56.173913,43.0854167 57.676087,44.44375 C58.3804348,45.0875 58.7630435,45.925 58.7630435,46.8125 C58.7630435,47.70625 58.373913,48.5458333 57.676087,49.1791667 Z" id="Fill-3"></path>
                    <path d="M29.8826087,37.0375 L27.0043478,35.175 C26.3086957,36.15 25.6782609,37.1854167 25.1347826,38.2416667 L28.2521739,39.7229167 C28.7282609,38.8041667 29.2804348,37.9 29.8826087,37.0375 Z" id="Fill-4"></path>
                    <path d="M22.826087,55.5520833 C23.0717391,56.7166667 23.4130435,57.8708333 23.8195652,58.9770833 L27.0978261,57.8625 C26.7413043,56.89375 26.4521739,55.89375 26.2217391,54.86875 L22.826087,55.5520833 Z" id="Fill-5"></path>
                    <path d="M22.7586957,44.95625 L26.1717391,45.6 C26.376087,44.58125 26.6565217,43.5729167 27.0043478,42.5958333 L23.7086957,41.5229167 C23.3108696,42.6375 22.9956522,43.7916667 22.7586957,44.95625 Z" id="Fill-6"></path>
                    <path d="M22.2391304,50.1 C22.2391304,50.75 22.2652174,51.39375 22.3173913,52.0291667 L25.7804348,51.7916667 C25.7391304,51.23125 25.7217391,50.6604167 25.7217391,50.0916667 C25.7217391,49.61875 25.7304348,49.15625 25.7652174,48.6833333 L22.2913043,48.4791667 C22.2565217,49.0166667 22.2391304,49.5541667 22.2391304,50.1 Z" id="Fill-7"></path>
                    <path d="M73.0304348,42.31875 C73.3956522,43.2958333 73.6847826,44.30625 73.9043478,45.3145833 L77.3086957,44.6395833 C77.0543478,43.4833333 76.723913,42.3354167 76.3086957,41.2125 L73.0304348,42.31875 Z" id="Fill-8"></path>
                    <path d="M70.2434783,63.14375 L73.1326087,65.0166667 C73.8195652,64.03125 74.4478261,62.9979167 75,61.9479167 L71.8826087,60.4583333 C71.4086957,61.3875 70.8565217,62.2895833 70.2434783,63.14375 Z" id="Fill-9"></path>
                    <path d="M73.1326087,57.59375 L76.426087,58.66875 C76.826087,57.5458333 77.1391304,56.3895833 77.3782609,55.2270833 L73.9630435,54.5916667 C73.7608696,55.6083333 73.4804348,56.61875 73.1326087,57.59375 Z" id="Fill-10"></path>
                    <path d="M77.8956522,50.1 C77.8956522,49.4479167 77.8695652,48.7979167 77.8195652,48.1458333 L74.3543478,48.3895833 C74.3978261,48.9520833 74.4130435,49.5208333 74.4130435,50.0916667 C74.4130435,50.5625 74.3978261,51.0354167 74.3717391,51.5 L77.8456522,51.7020833 C77.8782609,51.1729167 77.8956522,50.6375 77.8956522,50.1 Z" id="Fill-11"></path>
                </g>
            </g>
        </g>
    </g>
</svg>