<?xml version="1.0" encoding="UTF-8"?>
<svg width="120px" height="120px" viewBox="0 0 120 120" version="1.1" xmlns="http://www.w3.org/2000/svg" xmlns:xlink="http://www.w3.org/1999/xlink">
    <!-- Generator: Sketch 49.1 (51147) - http://www.bohemiancoding.com/sketch -->
    <title>phone-big-ico</title>
    <desc>Created with Sketch.</desc>
    <defs>
        <polygon id="path-1" points="0.00731707317 0.0583575883 49.9552533 0.0583575883 49.9552533 49.9860976 0.00731707317 49.9860976"></polygon>
    </defs>
    <g id="Page-1" stroke="none" stroke-width="1" fill="none" fill-rule="evenodd">
        <g id="5.-Divisi-Internasional" transform="translate(-811.000000, -1739.000000)">
            <g id="phone-big-ico" transform="translate(811.000000, 1739.000000)">
                <circle id="Oval-2" fill="#AE1620" cx="60" cy="60" r="60"></circle>
                <g id="002-phone-call" transform="translate(35.000000, 35.000000)">
                    <path d="M28.309878,5.02987805 C37.4909756,5.02987805 44.96,12.499878 44.96,21.6804878 C44.96,22.1402439 45.332561,22.5132927 45.7926829,22.5132927 C46.2528049,22.5132927 46.6253659,22.1402439 46.6253659,21.6804878 C46.6253659,11.5814634 38.4089024,3.365 28.309878,3.365 C27.8496341,3.365 27.4770732,3.73804878 27.4770732,4.19768293 C27.4770732,4.65743902 27.8496341,5.02987805 28.309878,5.02987805 Z" id="Fill-1" fill="#FFFFFF"></path>
                    <path d="M28.309878,10.025122 C34.7365854,10.025122 39.9652439,15.2537805 39.9652439,21.6804878 C39.9652439,22.1402439 40.3373171,22.5132927 40.797439,22.5132927 C41.257561,22.5132927 41.630122,22.1402439 41.630122,21.6804878 C41.630122,14.3358537 35.6545122,8.3602439 28.309878,8.3602439 C27.8496341,8.3602439 27.4770732,8.73317073 27.4770732,9.19292683 C27.4770732,9.65268293 27.8496341,10.025122 28.309878,10.025122 Z" id="Fill-2" fill="#FFFFFF"></path>
                    <g id="Group-6">
                        <mask id="mask-2" fill="white">
                            <use xlink:href="#path-1"></use>
                        </mask>
                        <g id="Clip-4"></g>
                        <path d="M28.309878,15.0203659 C31.9821951,15.0203659 34.97,18.0081707 34.97,21.6804878 C34.97,22.1402439 35.342561,22.5132927 35.8021951,22.5132927 C36.262439,22.5132927 36.634878,22.1402439 36.634878,21.6804878 C36.634878,17.0897561 32.900122,13.3554878 28.309878,13.3554878 C27.8496341,13.3554878 27.4770732,13.7280488 27.4770732,14.1876829 C27.4770732,14.647439 27.8496341,15.0203659 28.309878,15.0203659 Z" id="Fill-3" fill="#FFFFFF" mask="url(#mask-2)"></path>
                        <path d="M49.2058537,40.454878 L39.8904878,31.1313415 C38.9243902,30.1647561 37.237561,30.1642683 36.2714634,31.1317073 L31.5391463,35.8712195 C31.2237805,36.1865854 30.675,36.1856098 30.3610976,35.8717073 L14.1258537,19.6378049 C13.8009756,19.312439 13.8009756,18.7841463 14.1253659,18.4597561 L18.8714634,13.7141463 C19.8618293,12.7114634 19.8547561,11.0926829 18.8595122,10.1095122 L9.53512195,0.785 C8.56853659,-0.179268293 6.90073171,-0.185365854 5.92707317,0.775853659 L3.90146341,2.79329268 C0.66402439,6.04890244 -0.673170732,10.6563415 0.323414634,15.1156098 C4.00670732,31.762439 18.207439,45.9702439 34.8570732,49.6654878 C35.8112195,49.8784146 36.7902439,49.9860976 37.7658537,49.9860976 C41.33,49.9860976 44.677439,48.5979268 47.1913415,46.0779268 L49.2058537,44.0634146 C49.6913415,43.5779268 49.9570732,42.9334146 49.9552439,42.2484146 C49.9528049,41.5676829 49.6856098,40.9292683 49.2058537,40.454878 Z M48.0282927,42.8862195 L46.0132927,44.9018293 C43.8129268,47.1064634 40.8846341,48.3212195 37.7658537,48.3212195 C36.9121951,48.3212195 36.0556098,48.2268293 35.2186585,48.040122 C19.1782927,44.480122 5.49682927,30.7930488 1.94878049,14.7541463 C1.07658537,10.8502439 2.24707317,6.81768293 5.0795122,3.9704878 L7.09939024,1.95829268 C7.26853659,1.79158537 7.49097561,1.69963415 7.72670732,1.69963415 C7.96353659,1.69963415 8.18792683,1.79292683 8.35792683,1.96256098 L17.6853659,11.2908537 C18.0315854,11.632439 18.0315854,12.195 17.690122,12.5408537 L12.9478049,17.2826829 C11.975,18.2558537 11.975,19.8403659 12.9478049,20.8145122 L29.1840244,37.0492683 C29.655122,37.5208537 30.2819512,37.7804878 30.949878,37.7804878 C31.6173171,37.7804878 32.2446341,37.5203659 32.7171951,37.0478049 L37.4504878,32.3084146 C37.7863415,31.9710976 38.375122,31.970122 38.7123171,32.3084146 L48.0315854,41.6352439 C48.1979268,41.7996341 48.2893902,42.0187805 48.2902439,42.2531707 C48.2912195,42.4918293 48.197439,42.7167073 48.0282927,42.8862195 Z" id="Fill-5" fill="#FFFFFF" mask="url(#mask-2)"></path>
                    </g>
                </g>
            </g>
        </g>
    </g>
</svg>