<?xml version="1.0" encoding="UTF-8"?>
<svg width="20px" height="20px" viewBox="0 0 20 20" version="1.1" xmlns="http://www.w3.org/2000/svg" xmlns:xlink="http://www.w3.org/1999/xlink">
    <!-- Generator: Sketch 49.1 (51147) - http://www.bohemiancoding.com/sketch -->
    <title>phone-ico</title>
    <desc>Created with Sketch.</desc>
    <defs></defs>
    <g id="Symbols" stroke="none" stroke-width="1" fill="none" fill-rule="evenodd">
        <g id="Locations" transform="translate(0.000000, -91.000000)" fill="#AE1620">
            <g id="Group">
                <path d="M19.9542793,107.476398 C19.890937,106.998011 19.6137941,106.585323 19.1945489,106.344409 L14.2682416,103.515753 C13.6648993,103.169462 12.8994545,103.270269 12.4071095,103.761237 L11.4367591,104.728978 C11.178592,104.986452 10.7700745,105.009355 10.48684,104.781935 C9.72182648,104.168065 8.96856503,103.492419 8.24818767,102.773978 C7.52781031,102.055538 6.850344,101.304301 6.2348184,100.541559 C6.00678605,100.258871 6.02975101,99.8514516 6.28791813,99.5939785 L7.25826853,98.6262366 C7.75055964,98.1352151 7.85185344,97.372043 7.50441409,96.7701075 L4.66813376,91.857043 C4.42657042,91.4389247 4.01298551,91.1625269 3.53309333,91.0993548 C3.05320115,91.035914 2.58171867,91.1955376 2.23950843,91.5367742 L0.777459908,92.9949462 C-0.243025268,94.0126344 -0.259413408,95.8741935 0.731314355,98.2368817 C1.68376719,100.508548 3.46150303,103.009409 5.73681301,105.278602 C8.01212298,107.547796 10.5197241,109.320753 12.7975677,110.27086 C13.9637133,110.757043 15.007972,111 15.8896971,111 C16.799185,111 17.5353575,110.741452 18.0536324,110.224624 L19.5156809,108.766505 C19.8578373,108.425215 20.0178912,107.955 19.9542793,107.476398 Z M13.9456001,104.074785 L18.8716917,106.903495 C19.1153575,107.043333 19.27622,107.283172 19.3130933,107.561022 C19.3440367,107.794355 19.2831742,108.023925 19.1454383,108.20914 L12.5985381,104.482634 L12.8645219,104.217634 C13.1504518,103.932204 13.5951958,103.873602 13.9456001,104.074785 Z M3.44824158,91.7390323 C3.72705559,91.7758065 3.96732514,91.9362366 4.10754077,92.1790323 L6.943875,97.0920968 C7.14560007,97.4415591 7.08683996,97.8848925 6.80085613,98.1700538 L6.55659737,98.4137097 L2.79967015,91.9060215 C2.95314724,91.7925806 3.13697473,91.7310753 3.3284033,91.7310753 C3.36802595,91.7310753 3.40824158,91.7336022 3.44824158,91.7390323 Z M17.59622,109.768495 C16.7854923,110.577043 15.127379,110.543011 13.0470556,109.67543 C10.845061,108.757043 8.41136826,107.03371 6.1941715,104.822473 C3.97719037,102.611237 2.2489963,100.184086 1.32813376,97.9880108 C0.458214625,95.9132796 0.424090635,94.2596237 1.2348184,93.4510753 L2.32015533,92.3686559 L6.08279683,98.8862366 L5.83050573,99.1377957 C5.33816072,99.6288172 5.29541139,100.406075 5.730937,100.946022 C6.36096395,101.726882 7.05400977,102.495484 7.79082918,103.230161 C8.52764859,103.964946 9.29810681,104.656344 10.0810718,105.284677 C10.6224734,105.718978 11.4018265,105.676183 11.8941715,105.185161 L12.1243063,104.955591 L18.6803171,108.687151 L17.59622,109.768495 Z" id="phone-ico"></path>
            </g>
        </g>
    </g>
</svg>