<?xml version="1.0" encoding="UTF-8"?>
<svg width="100px" height="100px" viewBox="0 0 100 100" version="1.1" xmlns="http://www.w3.org/2000/svg" xmlns:xlink="http://www.w3.org/1999/xlink">
    <!-- Generator: Sketch 49.1 (51147) - http://www.bohemiancoding.com/sketch -->
    <title>ramah-lingkungan-ico</title>
    <desc>Created with Sketch.</desc>
    <defs>
        <polygon id="path-1" points="0 0.150138599 99.9509122 0.150138599 99.9509122 82.03125 0 82.03125"></polygon>
    </defs>
    <g id="Page-1" stroke="none" stroke-width="1" fill="none" fill-rule="evenodd">
        <g id="2.-Profile" transform="translate(-1120.000000, -1693.000000)">
            <g id="Stacked-Group" transform="translate(135.000000, 1667.000000)">
                <g id="ramah-lingkungan-ico" transform="translate(985.000000, 26.000000)">
                    <path d="M19.532681,71.4595703 L16.6874755,71.1357422 C15.8465753,71.0398438 15.0861057,71.6429687 14.9898239,72.4830078 C14.8939335,73.3230469 15.4984344,74.0814453 16.3399217,74.1773438 L22.4109589,74.8683594 C22.4994129,74.8783203 22.5874755,74.8833984 22.6751468,74.8833984 C23.1876712,74.8833984 23.6818004,74.7121094 24.0888454,74.3886719 C24.5649706,74.0105469 24.865362,73.4701172 24.9344423,72.8667969 L25.627593,66.80625 C25.7236791,65.9666016 25.1195695,65.2078125 24.2778865,65.1121094 C23.4367906,65.0173828 22.6763209,65.6193359 22.5802348,66.4591797 L22.1863014,69.9037109 C17.9452055,64.0572266 15.7117417,57.1730469 15.7117417,49.8816406 C15.7117417,45.8945313 16.3913894,41.9892578 17.7318982,38.2738281 C18.0189824,37.4785156 17.6056751,36.6015625 16.8086106,36.3152344 C16.0123288,36.0285156 15.1332681,36.4412109 14.8459883,37.2367188 C13.3849315,41.2853516 12.644227,45.5398438 12.644227,49.8816406 C12.6444227,57.6076172 15.0774951,65.1855469 19.532681,71.4595703" id="Fill-1" fill="#AE1620"></path>
                    <path d="M73.6084149,22.9828125 C74.1401174,22.3246094 74.0363992,21.3609375 73.3771037,20.8306641 C66.7755382,15.51875 58.464775,12.5931641 49.9755382,12.5931641 C43.5148728,12.5931641 37.1479452,14.2683594 31.5624266,17.4375 C26.1479452,20.5097656 21.546184,24.9273437 18.2544031,30.2125 C17.8072407,30.9304687 18.02818,31.8742187 18.7473581,32.3203125 C18.9994129,32.4767578 19.2790607,32.5511719 19.5555773,32.5511719 C20.0679061,32.5511719 20.5688845,32.2949219 20.8594912,31.8283203 C23.8818004,26.9755859 28.107045,22.9193359 33.0782779,20.0986328 C38.202544,17.1910156 44.0454012,15.6542969 49.9755382,15.6542969 C57.8796477,15.6542969 65.3060665,18.2681641 71.4520548,23.2134766 C72.1117417,23.7445312 73.0772994,23.6410156 73.6084149,22.9828125" id="Fill-2" fill="#AE1620"></path>
                    <g id="Group-7" transform="translate(0.000000, 17.968750)">
                        <mask id="mask-2" fill="white">
                            <use xlink:href="#path-1"></use>
                        </mask>
                        <g id="Clip-4"></g>
                        <path d="M26.5739726,60.9630859 C33.1751468,66.2753906 41.4861057,69.2007813 49.9755382,69.2007813 C70.5600783,69.2007813 87.3068493,52.4734375 87.3068493,31.9126953 C87.3068493,24.1283203 84.8369863,16.4953125 80.3176125,10.1949219 L83.3232877,10.7107422 C84.1594912,10.8541016 84.951272,10.2949219 85.0947162,9.46191406 C85.2383562,8.62851563 84.6780822,7.83710937 83.8434442,7.69394531 L77.8213307,6.66015625 C77.2215264,6.55683594 76.6164384,6.69296875 76.1191781,7.04394531 C75.6219178,7.39433594 75.2913894,7.91699219 75.1878669,8.51582031 L74.1516634,14.5269531 C74.0080235,15.3601563 74.5682975,16.1515625 75.4029354,16.2951172 C75.4911937,16.3101562 75.5782779,16.3173828 75.664775,16.3173828 C76.3976517,16.3173828 77.0457926,15.7912109 77.174364,15.0460938 L77.7273973,11.8392578 C81.9927593,17.6960938 84.239726,24.5994141 84.239726,31.9128906 C84.239726,50.7857422 68.8688845,66.1398437 49.9755382,66.1398437 C42.0714286,66.1398437 34.6448141,63.5257813 28.4994129,58.5804688 C27.8401174,58.0498047 26.8747554,58.1533203 26.3426614,58.8113281 C25.8109589,59.4689453 25.9146771,60.4326172 26.5739726,60.9630859" id="Fill-3" fill="#AE1620" mask="url(#mask-2)"></path>
                        <path d="M99.6863014,26.7726563 C99.5994129,25.9318359 98.8457926,25.3201172 98.0039139,25.4068359 C97.1612524,25.4931641 96.5485323,26.2449219 96.6350294,27.0857422 C96.8019569,28.7029297 96.8855186,30.3525391 96.883953,31.9884766 C96.8745597,42.8183594 93.2825832,52.9962891 86.4960861,61.4222656 C85.9655577,62.0810547 86.0704501,63.0445313 86.7305284,63.5740234 C87.0138943,63.8011719 87.3530333,63.9119141 87.6902153,63.9119141 C88.1389432,63.9119141 88.5835616,63.7164063 88.8866928,63.3400391 C96.0117417,54.49375 99.9410959,43.3603516 99.9508806,31.9910156 C99.9528376,30.2501953 99.8637965,28.4943359 99.6863014,26.7726563" id="Fill-5" fill="#AE1620" mask="url(#mask-2)"></path>
                        <path d="M82.8158513,65.8294922 L76.7681018,64.9505859 C75.9330724,64.8300781 75.1518591,65.4082031 75.0295499,66.2447266 C74.9076321,67.08125 75.4880626,67.8582031 76.3264188,67.9798828 L79.5383562,68.4464844 C79.47182,68.4853516 79.4062622,68.5277344 79.3446184,68.5777344 C70.9242661,75.3673828 60.7540117,78.9609375 49.9330724,78.9697266 C49.9195695,78.9697266 49.9058708,78.9697266 49.8921722,78.9697266 C37.4013699,78.9697266 25.6577299,74.1140625 16.8207436,65.2943359 C7.94109589,56.4318359 3.05655577,44.6337891 3.06731898,32.0730469 C3.07612524,21.3988281 6.76497065,10.9457031 13.4545988,2.63964844 C13.9853229,1.98085937 13.8802348,1.01738281 13.2203523,0.487695313 C12.5598826,-0.041796875 11.5947162,0.0630859375 11.0639922,0.721875 C3.93855186,9.56914062 0.00939334638,20.7023437 3.38813179e-21,32.0707031 C-0.0113502935,45.4498047 5.19217221,58.0177734 14.6518591,67.4589844 C24.0688845,76.8576172 36.5812133,82.0318359 49.8921722,82.03125 C49.9058708,82.03125 49.9217221,82.03125 49.9356164,82.03125 C61.3,82.021875 72.4285714,78.0898438 81.2714286,70.9597656 L80.8273973,74.003125 C80.7054795,74.8396484 81.2861057,75.6164062 82.1242661,75.7382812 C82.1992172,75.7490234 82.2733855,75.7542969 82.3471624,75.7542969 C83.0962818,75.7542969 83.7516634,75.2056641 83.862818,74.4439453 L84.7428571,68.4087891 C84.8309198,67.8074219 84.6786693,67.2076172 84.3144814,66.7205078 C83.9504892,66.2332031 83.4183953,65.9169922 82.8158513,65.8294922" id="Fill-6" fill="#AE1620" mask="url(#mask-2)"></path>
                    </g>
                    <path d="M18.2197652,15.6386719 L24.2677104,16.5173828 C24.3424658,16.528125 24.4166341,16.5333984 24.490411,16.5333984 C25.2395303,16.5333984 25.8949119,15.9849609 26.0060665,15.2232422 C26.12818,14.3867187 25.5477495,13.6097656 24.709589,13.4880859 L21.2060665,12.9791016 C29.5080235,6.49765625 39.4522505,3.06992188 50.0174168,3.06113281 C50.0317025,3.06113281 50.0436399,3.06113281 50.0577299,3.06113281 C71.2217221,3.06113281 89.8191781,17.3179688 95.2898239,37.7419922 C95.4729941,38.4263672 96.0927593,38.8777344 96.7702544,38.8777344 C96.9015656,38.8777344 97.034638,38.8607422 97.1671233,38.8255859 C97.9855186,38.6072266 98.4714286,37.7681641 98.2526419,36.9513672 C92.4242661,15.1890625 72.6101761,0 50.0581213,0 C50.0444227,0 50.0287671,0 50.0150685,0 C39.130137,0.008984375 28.462818,3.61875 19.8111546,10.1884766 L20.2082192,7.46523437 C20.3303327,6.62871094 19.7497065,5.85195312 18.911546,5.73027344 C18.0761252,5.60898438 17.2951076,6.18769531 17.1729941,7.02441406 L16.292955,13.0595703 C16.2046967,13.6611328 16.3569472,14.2607422 16.7213307,14.7482422 C17.0855186,15.2349609 17.6174168,15.5511719 18.2197652,15.6386719" id="Fill-8" fill="#AE1620"></path>
                    <path d="M66.1575342,55.7810547 C66.9857143,55.9623047 67.8029354,55.4390625 67.983953,54.6134766 C68.2951076,53.1974609 68.4524462,51.7466797 68.4524462,50.3013672 C68.4524462,45.6435547 66.7945205,40.5445312 63.7841487,35.9439453 C60.8545988,31.4664063 56.7074364,27.5792969 52.1068493,24.9992188 C51.4575342,24.6349609 50.7207436,24.4423828 49.9757339,24.4423828 C49.2309198,24.4423828 48.4941292,24.6349609 47.8450098,24.9990234 C43.244227,27.5789063 39.0970646,31.465625 36.1671233,35.94375 C33.1567515,40.5443359 31.4990215,45.6433594 31.4990215,50.3011719 C31.4990215,55.0777344 33.1951076,59.6996094 36.4033268,63.6671875 C39.3614481,67.3255859 43.4956947,70.2857422 48.360274,72.2277344 C48.3870841,72.2384766 48.4150685,72.2457031 48.4418787,72.2560547 L48.4418787,74.0269531 C48.4418787,74.8722656 49.1283757,75.5576172 49.9755382,75.5576172 C50.8227006,75.5576172 51.5091977,74.8722656 51.5091977,74.0269531 L51.5091977,72.25625 C51.5363992,72.2460938 51.5641879,72.2388672 51.590998,72.2279297 C56.4544031,70.2863281 60.5892368,67.3261719 63.5481409,63.6671875 C64.3493151,62.6763672 65.0669276,61.6285156 65.6806262,60.5537109 C66.1,59.8191406 65.8430528,58.8845703 65.1072407,58.4660156 C64.3710372,58.0476563 63.4348337,58.3039062 63.0154599,59.0382812 C62.4831703,59.9710938 61.8594912,60.8816406 61.1614481,61.7449219 C58.746771,64.7308594 55.4250489,67.2005859 51.5093933,68.9376953 L51.5093933,63.8257812 L59.6270059,58.1611328 C60.3215264,57.6767578 60.4908023,56.7226562 60.0054795,56.0298828 C59.5203523,55.3371094 58.5639922,55.1679688 57.8700587,55.6521484 L51.5091977,60.0904297 L51.5091977,54.2857422 C51.5091977,53.4404297 50.8227006,52.7550781 49.9755382,52.7550781 C49.1283757,52.7550781 48.4420744,53.4404297 48.4420744,54.2857422 L48.4420744,60.0904297 L42.0812133,55.6521484 C41.3868885,55.1677734 40.4309198,55.3371094 39.9457926,56.0298828 C39.460274,56.7226562 39.6297456,57.6769531 40.3240705,58.1611328 L48.4422701,63.8253906 L48.4422701,68.9371094 C44.5262231,67.1996094 41.2043053,64.7298828 38.790411,61.7445313 C36.0272016,58.3273437 34.5665362,54.3703125 34.5665362,50.3011719 C34.5665362,46.2308594 36.0469667,41.7263672 38.7354207,37.6175781 C41.4003914,33.5445312 45.1694716,30.0109375 49.3481409,27.6677734 C49.7307241,27.453125 50.2213307,27.453125 50.604501,27.6679687 C54.7831703,30.0111328 58.5514677,33.5447266 61.2162427,37.6177734 C63.9048924,41.7265625 65.3857143,46.2308594 65.3857143,50.3013672 C65.3857143,51.5267578 65.2520548,52.7572266 64.988454,53.9583984 C64.8064579,54.7837891 65.3303327,55.6 66.1575342,55.7810547" id="Fill-9" fill="#AE1620"></path>
                    <path d="M51.509002,44.04375 L51.509002,36.4285156 C51.509002,35.5832031 50.8225049,34.8980469 49.9753425,34.8980469 C49.12818,34.8980469 48.441683,35.5832031 48.441683,36.4285156 L48.441683,44.04375 C48.441683,44.8890625 49.12818,45.5742187 49.9753425,45.5742187 C50.8225049,45.5742187 51.509002,44.8890625 51.509002,44.04375" id="Fill-10" fill="#AE1620"></path>
                    <path d="M42.1878669,44.3150391 C41.702544,45.0080078 41.87182,45.9623047 42.5661448,46.4464844 L49.0968689,51.003125 C49.3606654,51.1871094 49.6681018,51.2791016 49.9755382,51.2791016 C50.2829746,51.2791016 50.590411,51.1871094 50.8542074,51.003125 L57.3851272,46.4464844 C58.0796477,45.9623047 58.2489237,45.0080078 57.7636008,44.3150391 C57.2784736,43.6222656 56.3221135,43.453125 55.6279843,43.9375 L49.9755382,47.8810547 L44.3234834,43.9375 C43.6291585,43.4533203 42.6731898,43.6224609 42.1878669,44.3150391" id="Fill-11" fill="#AE1620"></path>
                </g>
            </g>
        </g>
    </g>
</svg>