<?xml version="1.0" encoding="UTF-8"?>
<svg width="35px" height="35px" viewBox="0 0 35 35" version="1.1" xmlns="http://www.w3.org/2000/svg" xmlns:xlink="http://www.w3.org/1999/xlink">
    <!-- Generator: Sketch 49.1 (51147) - http://www.bohemiancoding.com/sketch -->
    <title>003-twitter</title>
    <desc>Created with Sketch.</desc>
    <defs></defs>
    <g id="Page-1" stroke="none" stroke-width="1" fill="none" fill-rule="evenodd">
        <g id="3.-Produk" transform="translate(-170.000000, -1374.000000)">
            <g id="003-twitter" transform="translate(170.000000, 1374.000000)">
                <polygon id="Fill-1" fill="#50ABF1" points="0 34.9044672 34.9603014 34.9044672 34.9603014 0.0396857923 0 0.0396857923"></polygon>
                <path d="M4.63160274,25.8840301 C6.95838356,27.3554645 9.71830137,28.2071311 12.677,28.2071311 C20.9883973,28.2071311 27.7262329,21.4870355 27.7262329,13.199112 C27.7262329,12.9921721 27.7221096,12.7866667 27.713863,12.5819262 C28.0145753,12.3459153 29.8739863,10.8595628 30.3298493,9.9043306 C30.3298493,9.9043306 28.8195753,10.5300273 27.3419041,10.6772951 C27.3388356,10.6772951 27.3354795,10.6779645 27.3325068,10.6779645 C27.3325068,10.6779645 27.3354795,10.6765301 27.3403699,10.6731831 C27.476726,10.5823361 29.3803425,9.28991803 29.638,7.75010929 C29.638,7.75010929 28.5700685,8.31862022 27.0748493,8.81588798 C26.8272603,8.89803279 26.5679726,8.97874317 26.3009178,9.05342896 C25.3371233,8.02733607 23.9669452,7.3870082 22.4462192,7.3870082 C19.5290411,7.3870082 17.1651507,9.74377049 17.1651507,12.6506831 C17.1651507,13.0608333 17.2123288,13.4601776 17.3018904,13.8434563 C16.8943562,13.8270082 10.6865068,13.4795902 6.46320548,8.37953552 C6.46320548,8.37953552 3.93936986,11.815847 7.96753425,15.3492213 C7.96753425,15.3492213 6.7430137,15.3006421 5.68678082,14.6712158 C5.68678082,14.6712158 5.29871233,18.8340164 9.86021918,19.8986475 C9.86021918,19.8986475 8.96278082,20.237459 7.53075342,19.995806 C7.53075342,19.995806 8.33163014,23.3596311 12.3844384,23.6737705 C12.3844384,23.6737705 9.17958904,26.560888 4.63006849,25.8836475 L4.63160274,25.8840301 Z" id="Fill-2" fill="#FFFFFF"></path>
            </g>
        </g>
    </g>
</svg>