<?xml version="1.0" encoding="UTF-8"?>
<svg width="35px" height="27px" viewBox="0 0 35 27" version="1.1" xmlns="http://www.w3.org/2000/svg" xmlns:xlink="http://www.w3.org/1999/xlink">
    <!-- Generator: Sketch 49.1 (51147) - http://www.bohemiancoding.com/sketch -->
    <title>001-youtube</title>
    <desc>Created with Sketch.</desc>
    <defs>
        <polygon id="path-1" points="0.0041015625 0.0406735219 35 0.0406735219 35 26.9958355 0.0041015625 26.9958355"></polygon>
    </defs>
    <g id="Page-1" stroke="none" stroke-width="1" fill="none" fill-rule="evenodd">
        <g id="3.-Produk" transform="translate(-365.000000, -1378.000000)">
            <g id="001-youtube" transform="translate(365.000000, 1378.000000)">
                <g id="Group-3">
                    <mask id="mask-2" fill="white">
                        <use xlink:href="#path-1"></use>
                    </mask>
                    <g id="Clip-2"></g>
                    <path d="M34.6379004,5.86142931 C34.6379004,5.86142931 34.2758691,3.22674293 33.25,2.06261954 C31.9223926,0.530838046 30.4137695,0.530838046 29.75,0.469550129 C24.8620996,0.10196144 17.5,0.0406735219 17.5,0.0406735219 C17.5,0.0406735219 10.1379004,0.10196144 5.25,0.469550129 C4.58623047,0.530838046 3.07760742,0.592125964 1.75,2.06261954 C0.663769531,3.22674293 0.362099609,5.86142931 0.362099609,5.86142931 C0.362099609,5.86142931 0,8.98628021 0,12.1110617 L0,14.9908303 C0,18.1156812 0.362099609,21.1792442 0.362099609,21.1792442 C0.362099609,21.1792442 0.724130859,23.8138612 1.75,24.978054 C3.07760742,26.5098355 4.82760742,26.4485476 5.61209961,26.6323419 C8.38790039,26.9387121 17.5,27 17.5,27 C17.5,27 24.8620996,27 29.75,26.571054 C30.4137695,26.5098355 31.9223926,26.4485476 33.25,24.978054 C34.2758691,23.8138612 34.6379004,21.1792442 34.6379004,21.1792442 C34.6379004,21.1792442 35,18.0543933 35,14.9908303 L35,12.1110617 C35,8.98628021 34.6379004,5.86142931 34.6379004,5.86142931" id="Fill-1" fill="#C6362D" mask="url(#mask-2)"></path>
                </g>
                <polyline id="Fill-4" fill="#FFFFFE" points="13.2758691 7.33192288 13.2758691 20.6277918 24.741377 14.1330077 13.2758691 7.33192288"></polyline>
            </g>
        </g>
    </g>
</svg>