<?xml version="1.0" encoding="UTF-8"?>
<svg width="35px" height="35px" viewBox="0 0 35 35" version="1.1" xmlns="http://www.w3.org/2000/svg" xmlns:xlink="http://www.w3.org/1999/xlink">
    <!-- Generator: Sketch 49.1 (51147) - http://www.bohemiancoding.com/sketch -->
    <title>004-facebook</title>
    <desc>Created with Sketch.</desc>
    <defs>
        <polygon id="path-1" points="0 0.0181418093 34.9816015 0.0181418093 34.9816015 34.9948655 0 34.9948655"></polygon>
    </defs>
    <g id="Page-1" stroke="none" stroke-width="1" fill="none" fill-rule="evenodd">
        <g id="3.-Produk" transform="translate(-235.000000, -1374.000000)">
            <g id="004-facebook" transform="translate(235.000000, 1374.000000)">
                <mask id="mask-2" fill="white">
                    <use xlink:href="#path-1"></use>
                </mask>
                <g id="Clip-2"></g>
                <path d="M30.2676406,0.0181418093 L4.71387531,0.0181418093 C2.11052567,0.0181418093 0,2.12858191 0,4.73201711 L0,30.2859535 C0,32.8893888 2.1104401,34.9998289 4.71387531,34.9998289 L17.3168704,34.9998289 L17.3383496,22.4992665 L14.090709,22.4992665 C13.6686553,22.4992665 13.3261002,22.1579951 13.3244743,21.7359413 L13.3088998,17.7064914 C13.3072738,17.2821271 13.6508557,16.9372616 14.07522,16.9372616 L17.316956,16.9372616 L17.316956,13.0437897 C17.316956,8.52545232 20.0764792,6.06518337 24.1071271,6.06518337 L27.4145844,6.06518337 C27.8377506,6.06518337 28.1809046,6.40825183 28.1809046,6.83150367 L28.1809046,10.2291565 C28.1809046,10.6522372 27.8380073,10.99522 27.4150122,10.9954768 L25.3852689,10.9964181 C23.1932763,10.9964181 22.7688264,12.0380318 22.7688264,13.5666504 L22.7688264,16.9373472 L27.5853912,16.9373472 C28.0443276,16.9373472 28.4004034,17.3380929 28.3463203,17.7938631 L27.8687286,21.823313 C27.8230318,22.208912 27.4960513,22.4994377 27.1077995,22.4994377 L22.7903056,22.4994377 L22.7688264,35 L30.2678117,35 C32.8711614,35 34.9816015,32.8895599 34.9816015,30.2862103 L34.9816015,4.73201711 C34.9815159,2.12858191 32.8710758,0.0181418093 30.2676406,0.0181418093" id="Fill-1" fill="#445281" mask="url(#mask-2)"></path>
            </g>
        </g>
    </g>
</svg>