<?xml version="1.0" encoding="UTF-8"?>
<svg width="20px" height="20px" viewBox="0 0 20 20" version="1.1" xmlns="http://www.w3.org/2000/svg" xmlns:xlink="http://www.w3.org/1999/xlink">
    <!-- Generator: Sketch 49.1 (51147) - http://www.bohemiancoding.com/sketch -->
    <title>step-arrow</title>
    <desc>Created with Sketch.</desc>
    <defs></defs>
    <g id="Page-1" stroke="none" stroke-width="1" fill="none" fill-rule="evenodd">
        <g id="8.1-Rekrutmen-Biodata" transform="translate(-291.000000, -167.000000)" fill="#000000">
            <g id="Group-4" transform="translate(165.000000, 156.000000)">
                <g id="step-arrow" transform="translate(126.000000, 11.000000)">
                    <path d="M1.12757777,19.7928896 C0.99855071,19.9308195 0.837317203,20 0.660383055,20 C0.482643746,20 0.322416691,19.9308195 0.193389628,19.7928896 C-0.0644632092,19.5168142 -0.0644632092,19.0687575 0.193389628,18.7926822 L8.40623396,9.99943427 L0.193389628,1.20726395 C-0.0644632092,0.930973079 -0.0644632092,0.482269809 0.193389628,0.207056516 C0.450437303,-0.0690188387 0.869523647,-0.0690188387 1.12757777,0.207056516 L9.80661037,9.49943831 C10.0644632,9.77551367 10.0644632,10.2242169 9.80661037,10.4996457 L1.12757777,19.7928896 Z" id="Fill-1"></path>
                    <path d="M11.1275778,19.7928896 C10.9985507,19.9308195 10.8373172,20 10.6603831,20 C10.4826437,20 10.3224167,19.9308195 10.1933896,19.7928896 C9.93553679,19.5168142 9.93553679,19.0687575 10.1933896,18.7926822 L18.406234,9.99943427 L10.1933896,1.20726395 C9.93553679,0.930973079 9.93553679,0.482269809 10.1933896,0.207056516 C10.4504373,-0.0690188387 10.8695236,-0.0690188387 11.1275778,0.207056516 L19.8066104,9.49943831 C20.0644632,9.77551367 20.0644632,10.2242169 19.8066104,10.4996457 L11.1275778,19.7928896 Z" id="Fill-1"></path>
                </g>
            </g>
        </g>
    </g>
</svg>